<?xml version="1.0" standalone="no"?>
<!DOCTYPE svg PUBLIC "-//W3C//DTD SVG 1.1//EN" "http://www.w3.org/Graphics/SVG/1.1/DTD/svg11.dtd" >
<svg>
<metadata>
Created by FontForge 20090622 at Tue Sep 20 02:44:16 2016
 By deploy user
Copyright (c) 1989 Adobe Systems Incorporated.  All Rights Reserved.Avenir is a registered trademark of Linotype AG and/or its subsidiaries.
</metadata>
<defs>
<font id="AvenirLT-MediumOblique" horiz-adv-x="556" >
  <font-face 
    font-family="Avenir LT 65 Medium"
    font-weight="400"
    font-style="oblique"
    font-stretch="normal"
    units-per-em="1000"
    panose-1="2 0 6 3 2 0 0 2 0 3"
    ascent="800"
    descent="-200"
    x-height="474"
    cap-height="708"
    bbox="-166 -282 1061 924"
    underline-thickness="50"
    underline-position="-75"
    slope="-8"
    unicode-range="U+0020-U+FB02"
  />
<missing-glyph horiz-adv-x="278" 
 />
    <glyph glyph-name=".notdef" horiz-adv-x="278" 
 />
    <glyph glyph-name="space" unicode=" " horiz-adv-x="278" 
 />
    <glyph glyph-name="space" unicode="&#xa0;" horiz-adv-x="278" 
 />
    <glyph glyph-name="exclam" unicode="!" horiz-adv-x="278" 
d="M81 60q4 27 26.5 46.5t49.5 19.5t43.5 -19.5t12.5 -46.5t-26 -46.5t-49 -19.5t-44 19.5t-13 46.5zM214 204h-96l71 504h96z" />
    <glyph glyph-name="quotedbl" unicode="&#x22;" horiz-adv-x="519" 
d="M395 708h78l-35 -246h-78zM246 708h78l-35 -246h-78z" />
    <glyph glyph-name="numbersign" unicode="#" 
d="M290 426l-40 -144h116l40 144h-116zM149 204h-95l11 78h106l40 144h-95l11 78h106l57 204h79l-57 -204h116l57 204h79l-57 -204h95l-11 -78h-106l-40 -144h95l-11 -78h-106l-57 -204h-79l57 204h-116l-57 -204h-79z" />
    <glyph glyph-name="dollar" unicode="$" 
d="M310 72q51 6 90 36.5t47 81.5q3 26 -4.5 44.5t-22.5 31.5t-35.5 22t-41.5 16zM335 636q-48 -8 -82.5 -36.5t-40.5 -76.5q-3 -24 3 -41.5t19 -30.5t31.5 -22t38.5 -15zM401 720q55 0 105 -18.5t82 -58.5l-81 -70q-19 29 -49.5 45.5t-68.5 17.5l-33 -236l-2 -1
q42 -12 79.5 -26.5t64 -37t39.5 -56.5t6 -85q-6 -46 -29 -83t-56 -63.5t-74.5 -41.5t-85.5 -18l-10 -72h-54l10 72q-66 0 -119.5 21.5t-86.5 74.5l87 69q17 -38 53 -58.5t78 -22.5l35 246q-39 10 -74 25.5t-59.5 39.5t-36.5 58t-5 82q6 43 27.5 77.5t53.5 60t70.5 41
t79.5 18.5l10 72h54z" />
    <glyph glyph-name="percent" unicode="%" horiz-adv-x="852" 
d="M561 159q-5 -42 19 -70.5t66 -28.5q21 0 40 7.5t34.5 21t25.5 31.5t13 39q6 42 -18.5 70.5t-66.5 28.5q-21 0 -40 -7.5t-34 -21t-25.5 -31.5t-13.5 -39zM483 159q5 37 23.5 69t46 56t61.5 38t71 14t67 -14t51 -38t30 -56t4 -69t-23.5 -69t-46 -56t-61.5 -38t-71 -14
t-67 14t-50.5 38t-30 56t-4.5 69zM192 549q-6 -42 18.5 -70.5t66.5 -28.5q21 0 40 7.5t34 21t25.5 31.5t13.5 39q6 42 -18.5 70.5t-66.5 28.5q-21 0 -40 -7.5t-34 -21t-25.5 -31.5t-13.5 -39zM114 549q5 37 23.5 69t46 56t61.5 38t71 14t67 -14t51 -38t30 -56t4 -69
t-23.5 -69t-46 -56t-61.5 -38t-71 -14t-67 14t-51 38t-30 56t-4 69zM231 -31l-56 31l549 740l56 -31z" />
    <glyph glyph-name="ampersand" unicode="&#x26;" horiz-adv-x="722" 
d="M315 334q-23 -12 -46.5 -26t-42.5 -31t-32.5 -38.5t-17.5 -48.5q-4 -26 4 -48.5t24 -39.5t38.5 -26.5t48.5 -9.5t49.5 8t45 20.5t40.5 28.5t35 33zM480 560q5 35 -16.5 55.5t-59.5 20.5t-69 -21.5t-36 -61.5q-3 -18 1.5 -34t12.5 -31t18.5 -28l20.5 -25q20 10 41 22
t39.5 27t31.5 33.5t16 42.5zM712 0h-129l-74 94q-53 -54 -107 -83t-126 -29q-60 0 -101 17.5t-65.5 46.5t-33 65.5t-3.5 75.5q5 37 22.5 67.5t43 55.5t57.5 45t67 35q-14 18 -26.5 36t-21.5 38t-12.5 42t0.5 48q6 40 25.5 71t48.5 52t64.5 32t73.5 11q37 0 69 -10t54.5 -30
t33 -50t4.5 -70q-5 -33 -22 -60.5t-41 -50t-53 -40t-57 -31.5l120 -146l109 145h109l-167 -212z" />
    <glyph glyph-name="quotesingle" unicode="'" horiz-adv-x="278" 
d="M243 462h-78l35 246h78z" />
    <glyph glyph-name="parenleft" unicode="(" horiz-adv-x="278" 
d="M352 694q-39 -51 -70 -98t-54 -95.5t-38 -100.5t-24 -112q-15 -110 2.5 -213t69.5 -191l-66 -40q-56 94 -78.5 207t-5.5 237q17 115 70 230t139 214z" />
    <glyph glyph-name="parenright" unicode=")" horiz-adv-x="278" 
d="M7 -118q39 51 70 98t53.5 95.5t38 100.5t23.5 112q16 110 -1.5 213t-69.5 191l66 40q56 -94 78.5 -207t4.5 -237q-16 -115 -69.5 -230t-138.5 -214z" />
    <glyph glyph-name="asterisk" unicode="*" horiz-adv-x="464" 
d="M348 561l145 47l12 -67l-145 -45l71 -119l-61 -41l-74 122l-105 -120l-50 41l106 117l-136 48l31 65l134 -48l21 147h72z" />
    <glyph glyph-name="plus" unicode="+" horiz-adv-x="666" 
d="M114 342h228l32 228h78l-32 -228h228l-11 -78h-228l-32 -228h-78l32 228h-228z" />
    <glyph glyph-name="comma" unicode="," horiz-adv-x="278" 
d="M111 -132h-82l104 246h97z" />
    <glyph glyph-name="hyphen" unicode="-" horiz-adv-x="316" 
d="M309 200h-246l12 84h246z" />
    <glyph glyph-name="hyphen" unicode="&#xad;" horiz-adv-x="316" 
d="M309 200h-246l12 84h246z" />
    <glyph glyph-name="period" unicode="." horiz-adv-x="278" 
d="M138 -6q-27 0 -44 19.5t-13 46.5t26.5 46.5t49.5 19.5t43.5 -19.5t12.5 -46.5t-26 -46.5t-49 -19.5z" />
    <glyph glyph-name="slash" unicode="/" horiz-adv-x="389" 
d="M64 -44l-67 26l429 770l65 -26z" />
    <glyph glyph-name="zero" unicode="0" 
d="M180 354q-5 -35 -7.5 -83t6.5 -92.5t34 -75.5t75 -31t84 31t55.5 75.5t32.5 92.5t16 83q3 24 6 54.5t2 62t-7 61t-19 53t-35.5 37.5t-55.5 14t-59 -14t-46 -37.5t-33.5 -53t-23.5 -61t-16 -62t-9 -54.5zM84 354q8 58 27 122.5t53.5 118.5t87 89.5t127.5 35.5t118 -35.5
t62.5 -89.5t20 -118.5t-7.5 -122.5q-8 -56 -27 -120t-53.5 -119t-87.5 -91t-128 -36t-117.5 36t-61.5 91t-20 119t7 120z" />
    <glyph glyph-name="one" unicode="1" 
d="M354 598l-147 -120l-46 67l220 163h85l-100 -708h-96z" />
    <glyph glyph-name="two" unicode="2" 
d="M60 102l324 282q33 29 62.5 65t35.5 80q4 26 -3 47t-21.5 35.5t-35.5 22.5t-46 8q-52 0 -90 -29t-54 -80l-103 9q28 94 98 139t162 45q46 0 84.5 -12.5t65.5 -37t39.5 -61t5.5 -85.5q-5 -35 -19.5 -65.5t-35.5 -57.5t-46.5 -51t-52.5 -47l-264 -225h356l-12 -84h-464z
" />
    <glyph glyph-name="three" unicode="3" 
d="M171 173q10 -51 35 -76t81 -25q28 0 54 9.5t47 26t35.5 40t18.5 52.5q6 44 -8.5 70.5t-41.5 40t-61.5 17.5t-68.5 4l11 84q55 0 91 7.5t58.5 21.5t33 35t14.5 47q8 57 -22 86t-81 29q-39 0 -73.5 -22.5t-55.5 -59.5l-94 33q38 68 100 100.5t133 32.5q43 0 81 -11.5
t64.5 -35.5t39 -60.5t5.5 -85.5q-8 -56 -47.5 -100t-96.5 -60v-2q33 -6 56.5 -22t37.5 -40t19 -53.5t1 -62.5q-7 -51 -32 -89.5t-61 -64t-80.5 -38.5t-91.5 -13q-81 0 -137 36.5t-69 117.5z" />
    <glyph glyph-name="four" unicode="4" 
d="M419 594h-2l-265 -354h218zM358 156h-302l14 98l346 454h116l-66 -468h100l-12 -84h-100l-22 -156h-96z" />
    <glyph glyph-name="five" unicode="5" 
d="M558 618h-287l-28 -177q8 3 21 6t27 5t27 3t22 1q50 0 88 -17t62.5 -48t34 -74t2.5 -95q-8 -53 -33.5 -96t-63.5 -74t-85.5 -47.5t-99.5 -16.5q-72 0 -125 37t-68 106l102 33q12 -49 41 -70.5t77 -21.5q28 0 55 10t48 28.5t35.5 45.5t19.5 61q11 78 -31 116.5t-118 38.5
q-14 0 -32 -2.5t-38 -7t-41 -11.5t-40 -16l61 373h380z" />
    <glyph glyph-name="six" unicode="6" 
d="M162 219q-5 -32 2 -59t23.5 -46.5t42 -30.5t58.5 -11t61.5 11t51 30.5t36.5 46.5t19 59q4 32 -2.5 59t-23.5 46.5t-42.5 30.5t-58.5 11t-61.5 -11t-50.5 -30.5t-36.5 -46.5t-18.5 -59zM281 434h4q36 16 80 16q38 0 75.5 -13t65 -40.5t41.5 -70t6 -100.5
q-8 -59 -33.5 -103.5t-63 -74.5t-84 -45t-96.5 -15t-92 16t-70.5 46t-42 72t-6.5 94q5 33 14 60t21.5 51.5t29 48t36.5 49.5l219 283h113z" />
    <glyph glyph-name="seven" unicode="7" 
d="M472 624h-342l12 84h445l-12 -82l-370 -626h-108z" />
    <glyph glyph-name="eight" unicode="8" 
d="M288 72q30 0 56.5 9.5t46.5 27t33.5 41.5t17.5 53q4 32 -3 56.5t-23 41t-39.5 25t-51.5 8.5q-29 0 -55.5 -10t-46.5 -27.5t-33.5 -41.5t-17.5 -52q-5 -31 2.5 -55.5t23.5 -41t39.5 -25.5t50.5 -9zM241 530q-3 -21 2 -41t17 -35.5t31 -25.5t46 -10q28 0 50 9.5t38 25
t25.5 35.5t12.5 42q8 49 -18.5 80.5t-76.5 31.5q-23 0 -44 -8t-38.5 -23t-29 -35.5t-15.5 -45.5zM276 -12q-48 0 -88 14.5t-67.5 42.5t-39.5 68t-5 90q4 33 18.5 61t35.5 50.5t48 38t57 23.5v3q-19 5 -37 18t-31 33t-19 48.5t-1 65.5q6 40 27 72.5t53 55.5t71 35.5t81 12.5
t77.5 -12.5t60.5 -35.5t37.5 -55.5t6.5 -72.5q-5 -37 -19 -65.5t-32.5 -48.5t-40 -33t-42.5 -18v-3q56 -16 88 -61.5t23 -111.5q-7 -50 -31 -90t-59 -68t-79.5 -42.5t-92.5 -14.5z" />
    <glyph glyph-name="nine" unicode="9" 
d="M494 489q4 32 -2.5 59t-23.5 46.5t-42.5 30.5t-58.5 11t-61.5 -11t-50.5 -30.5t-36.5 -46.5t-18.5 -59q-5 -32 2 -59t23.5 -46.5t42 -30.5t58.5 -11t61.5 11t51 30.5t36.5 46.5t19 59zM375 274h-4q-36 -16 -81 -16q-38 0 -75 13t-65 40.5t-41.5 70t-5.5 100.5t33.5 102.5
t63 74.5t83.5 45.5t96 15.5t92 -16t71 -46t42 -72t6 -94q-5 -33 -13.5 -60t-21.5 -51.5t-29.5 -48.5t-35.5 -49l-219 -283h-113z" />
    <glyph glyph-name="colon" unicode=":" horiz-adv-x="278" 
d="M81 60q4 27 26.5 46.5t49.5 19.5t43.5 -19.5t12.5 -46.5t-26 -46.5t-49 -19.5t-44 19.5t-13 46.5zM188 348q-27 0 -44 19.5t-13 46.5t26 46.5t49 19.5t44 -19.5t13 -46.5t-26 -46.5t-49 -19.5z" />
    <glyph glyph-name="semicolon" unicode=";" horiz-adv-x="278" 
d="M131 413q4 27 26 46.5t49 19.5t44 -19.5t13 -46.5t-26 -46.5t-49 -19.5t-44 19.5t-13 46.5zM111 -132h-82l104 246h97z" />
    <glyph glyph-name="semicolon" unicode="&#x37e;" horiz-adv-x="278" 
d="M131 413q4 27 26 46.5t49 19.5t44 -19.5t13 -46.5t-26 -46.5t-49 -19.5t-44 19.5t-13 46.5zM111 -132h-82l104 246h97z" />
    <glyph glyph-name="less" unicode="&#x3c;" horiz-adv-x="666" 
d="M606 43l-503 219l11 82l565 220l-11 -79l-477 -182l426 -182z" />
    <glyph glyph-name="equal" unicode="=" horiz-adv-x="666" 
d="M637 263l-11 -78h-534l11 78h534zM659 420l-11 -78h-534l11 78h534z" />
    <glyph glyph-name="greater" unicode="&#x3e;" horiz-adv-x="666" 
d="M145 563l503 -219l-11 -82l-565 -220l11 79l478 182l-427 182z" />
    <glyph glyph-name="question" unicode="?" horiz-adv-x="500" 
d="M199 60q4 27 26.5 46.5t49.5 19.5t43.5 -19.5t12.5 -46.5t-26 -46.5t-49 -19.5t-44 19.5t-13 46.5zM238 198l8 61q4 27 10.5 45t17 32.5t26 28l37.5 32.5l36.5 30.5t33.5 32t26 35t14 41.5t-2.5 42.5t-17.5 33.5t-30.5 22t-40.5 8q-49 0 -83.5 -31t-48.5 -81l-100 10
q25 87 91.5 136.5t154.5 49.5q42 0 77 -12.5t58.5 -36t34 -58t4.5 -78.5q-5 -38 -20.5 -66.5t-38.5 -53.5l-69 -62l-11 -9q-18 -15 -29 -25.5t-18 -22t-11 -25.5t-7 -35l-6 -44h-96z" />
    <glyph glyph-name="at" unicode="@" horiz-adv-x="800" 
d="M569 267q-7 -15 -9 -25q-3 -24 26 -24q21 0 45 15.5t45.5 42.5t37.5 62.5t22 75.5q8 59 -6.5 104.5t-46 77t-76.5 48t-98 16.5q-64 0 -121.5 -24t-102.5 -65.5t-75 -97.5t-39 -121q-9 -66 6.5 -122t50 -96.5t86 -63t114.5 -22.5q72 0 138 26t109 75h79q-26 -38 -64 -69
t-83 -52.5t-94 -33.5t-97 -12q-79 0 -143.5 29t-107.5 79.5t-62.5 119t-8.5 146.5q11 77 50 144.5t96.5 117.5t129 79t147.5 29q70 0 128.5 -23t99.5 -63.5t60 -96t10 -121.5q-9 -64 -39.5 -116t-71 -89t-84.5 -57t-79 -20q-26 0 -42 16.5t-12 47.5h-4q-26 -24 -61 -44
t-72 -20q-32 0 -55.5 12.5t-38.5 33.5t-20.5 49.5t-0.5 61.5q7 49 29.5 97t57 85.5t79 60.5t95.5 23q35 0 61.5 -17.5t34.5 -58.5h2l24 57h73zM490 485q-35 0 -64.5 -15.5t-51.5 -42t-36 -60t-19 -69.5q-5 -37 8.5 -58.5t51.5 -21.5q30 0 57.5 17.5t49.5 43.5t36.5 57.5
t18.5 60.5q5 35 -7 61.5t-44 26.5z" />
    <glyph glyph-name="B" unicode="B" horiz-adv-x="630" 
d="M199 84h141q22 0 49 4.5t52.5 18t44.5 36.5t24 61q8 63 -28.5 94.5t-106.5 31.5h-142zM245 414h131q27 0 52 5.5t44.5 18.5t33 33t17.5 49q6 42 -16.5 73t-80.5 31h-151zM191 708h246q46 0 84 -11t63.5 -32.5t37 -55t5.5 -78.5q-9 -61 -48 -99.5t-96 -56.5l-1 -2
q32 -2 58 -16.5t43.5 -38t25 -54.5t2.5 -67q-7 -48 -31.5 -84.5t-62 -61.5t-84.5 -38t-99 -13h-243z" />
    <glyph glyph-name="C" unicode="C" horiz-adv-x="704" 
d="M662 555q-25 39 -68 60t-92 21q-60 0 -111.5 -22.5t-91.5 -61.5t-66 -91.5t-35 -112.5q-8 -56 3 -106t39.5 -88t74.5 -60t108 -22q61 0 110.5 25t87.5 70l73 -61q-9 -11 -32.5 -31.5t-59.5 -41t-84.5 -36t-109.5 -15.5q-84 0 -147 32t-103 84t-55.5 117.5t-6.5 132.5
q12 82 48.5 151.5t92.5 120t127.5 78.5t153.5 28q35 0 69 -6.5t64.5 -20t56 -34.5t43.5 -49z" />
    <glyph glyph-name="D" unicode="D" horiz-adv-x="741" 
d="M184 90h121q61 0 117.5 16.5t102.5 49.5t77 82.5t40 115.5q4 34 -0.5 79.5t-29 86.5t-74.5 69.5t-136 28.5h-144zM175 708h247q75 0 129 -17t91.5 -45.5t59.5 -65.5t33 -76t12 -78t-3 -72q-10 -68 -44 -131.5t-90 -113t-132.5 -79.5t-171.5 -30h-231z" />
    <glyph glyph-name="E" unicode="E" horiz-adv-x="611" 
d="M191 708h457l-13 -90h-361l-30 -211h336l-12 -90h-336l-32 -227h379l-13 -90h-475z" />
    <glyph glyph-name="F" unicode="F" horiz-adv-x="574" 
d="M191 708h445l-13 -90h-349l-31 -222h325l-13 -90h-325l-43 -306h-96z" />
    <glyph glyph-name="G" unicode="G" horiz-adv-x="778" 
d="M750 396l-49 -349q-28 -16 -63 -28t-72 -20.5t-74 -12.5t-69 -4q-90 0 -156 30t-107.5 81t-57.5 118.5t-5 142.5q11 79 47.5 147t92.5 118t128 78.5t153 28.5q97 0 156.5 -24.5t94.5 -67.5l-78 -73q-38 42 -85 58.5t-101 16.5q-61 0 -113 -22.5t-92.5 -60.5t-66.5 -89.5
t-34 -109.5q-9 -60 5 -111.5t45.5 -89.5t78.5 -59.5t106 -21.5q51 0 97.5 9.5t81.5 27.5l28 197h-157l13 90h253z" />
    <glyph glyph-name="H" unicode="H" horiz-adv-x="741" 
d="M191 708h96l-42 -294h367l42 294h96l-100 -708h-96l46 324h-367l-46 -324h-96z" />
    <glyph glyph-name="I" unicode="I" horiz-adv-x="278" 
d="M191 708h96l-100 -708h-96z" />
    <glyph glyph-name="J" unicode="J" horiz-adv-x="482" 
d="M412 708h96l-72 -506q-9 -67 -36.5 -109.5t-62.5 -67t-72 -34t-67 -9.5q-75 0 -120.5 38.5t-49.5 116.5l97 21q3 -40 24.5 -63t61.5 -23q36 0 59.5 14t39 36.5t23.5 51.5t12 59z" />
    <glyph glyph-name="K" unicode="K" horiz-adv-x="648" 
d="M191 708h96l-44 -306h8l357 306h134l-388 -327l311 -381h-140l-280 354h-8l-50 -354h-96z" />
    <glyph glyph-name="L" unicode="L" horiz-adv-x="519" 
d="M191 708h96l-87 -618h325l-13 -90h-421z" />
    <glyph glyph-name="M" unicode="M" horiz-adv-x="906" 
d="M184 708h143l149 -536h4l299 536h143l-100 -708h-96l82 582h-2l-321 -582h-64l-157 582h-2l-82 -582h-96z" />
    <glyph glyph-name="N" unicode="N" horiz-adv-x="796" 
d="M191 708h126l308 -582h2l82 582h96l-100 -708h-122l-312 582h-2l-82 -582h-96z" />
    <glyph glyph-name="O" unicode="O" horiz-adv-x="832" 
d="M426 72q61 0 113.5 22.5t92.5 60.5t66.5 89.5t34.5 109.5t-3.5 109.5t-41.5 89.5t-76 60.5t-107 22.5t-113 -22.5t-92.5 -60.5t-66.5 -89.5t-34 -109.5t3.5 -109.5t41 -89.5t75.5 -60.5t107 -22.5zM413 -18q-81 0 -144.5 28.5t-105.5 78.5t-59.5 118t-6.5 147t47.5 147
t92.5 118t128 78.5t153 28.5t144.5 -28.5t105.5 -78.5t60 -118t7 -147t-48 -147t-93 -118t-128 -78.5t-153 -28.5z" />
    <glyph glyph-name="P" unicode="P" horiz-adv-x="593" 
d="M243 396h126q28 0 56 4.5t51 16.5t39.5 34.5t21.5 58.5t-5 58.5t-29.5 34.5t-46.5 16.5t-55 4.5h-126zM191 708h249q68 0 109 -18.5t62.5 -47t26.5 -64t1 -68.5q-5 -33 -20 -68.5t-44.5 -64t-76 -47t-114.5 -18.5h-153l-44 -312h-96z" />
    <glyph glyph-name="Q" unicode="Q" horiz-adv-x="832" 
d="M423 90q58 0 109.5 21.5t91 59t66 88.5t34.5 109q8 56 -5 105t-43 85t-75 57t-102 21q-56 0 -106.5 -21t-90.5 -57t-66.5 -84.5t-34.5 -103.5q-8 -58 4 -109t41 -89t74 -60t103 -22zM822 0h-408q-75 0 -138 27t-106.5 75t-63 114.5t-8.5 145.5q11 78 48.5 144.5
t93.5 115.5t126.5 76.5t148.5 27.5q75 0 137 -27t104 -74.5t61.5 -112t8.5 -140.5q-6 -45 -23 -88.5t-42.5 -81.5t-60 -68t-76.5 -48v-2h210z" />
    <glyph glyph-name="R" unicode="R" horiz-adv-x="611" 
d="M243 396h126q28 0 56 4.5t51 16.5t39.5 34.5t21.5 58.5t-5 58.5t-29.5 34.5t-46.5 16.5t-55 4.5h-126zM191 708h249q68 0 109 -18.5t62.5 -47t26.5 -64t1 -68.5q-5 -34 -21.5 -65.5t-43 -57t-61 -43t-75.5 -21.5l156 -323h-120l-136 312h-107l-44 -312h-96z" />
    <glyph glyph-name="S" unicode="S" 
d="M133 148q20 -39 58 -57.5t81 -18.5q24 0 50 7.5t48.5 22.5t39 37t20.5 51q6 41 -17 62.5t-60 36t-80 28t-78.5 37.5t-56 64.5t-10.5 109.5q4 31 23 66t52 64t81 48.5t112 19.5q29 0 56.5 -3.5t52.5 -12.5t46 -25t38 -40l-88 -71q-14 28 -45 45t-73 17q-40 0 -68 -10.5
t-46 -27t-27.5 -35.5t-11.5 -35q-6 -45 16.5 -69t59 -39t80 -27t79.5 -33.5t56.5 -58t11.5 -100.5q-7 -51 -32 -92t-62.5 -69t-84.5 -43t-98 -15q-68 0 -125.5 24t-86.5 74z" />
    <glyph glyph-name="T" unicode="T" horiz-adv-x="574" 
d="M326 618h-228l13 90h552l-13 -90h-228l-87 -618h-96z" />
    <glyph glyph-name="U" unicode="U" horiz-adv-x="704" 
d="M274 708l-61 -434q-5 -33 -1 -68.5t20.5 -65.5t48 -49t81.5 -19t87 19t62 49t39 65.5t19 68.5l61 434h96l-64 -449q-9 -62 -37 -112.5t-70 -87.5t-95 -57t-111 -20t-105.5 20t-79 57t-45.5 87.5t-5 112.5l64 449h96z" />
    <glyph glyph-name="V" unicode="V" horiz-adv-x="630" 
d="M94 708h111l127 -576h2l297 576h105l-379 -708h-90z" />
    <glyph glyph-name="W" unicode="W" horiz-adv-x="962" 
d="M101 708h100l76 -566h2l247 566h110l87 -566h2l236 566h100l-306 -708h-101l-91 578h-2l-252 -578h-101z" />
    <glyph glyph-name="X" unicode="X" horiz-adv-x="648" 
d="M307 372l-190 336h123l145 -272l221 272h120l-284 -335l208 -373h-126l-160 307l-247 -307h-119z" />
    <glyph glyph-name="Y" unicode="Y" horiz-adv-x="612" 
d="M300 302l-210 406h123l149 -311l243 311h117l-326 -406l-42 -302h-96z" />
    <glyph glyph-name="Z" unicode="Z" horiz-adv-x="593" 
d="M45 90l477 528h-391l13 90h511l-13 -90l-475 -528h407l-13 -90h-529z" />
    <glyph glyph-name="bracketleft" unicode="[" horiz-adv-x="278" 
d="M175 732h174l-9 -66h-90l-107 -756h90l-9 -66h-174z" />
    <glyph glyph-name="backslash" unicode="\" horiz-adv-x="389" 
d="M102 726l73 26l211 -770l-73 -26z" />
    <glyph glyph-name="bracketright" unicode="]" horiz-adv-x="278" 
d="M19 -90h90l107 756h-90l9 66h174l-125 -888h-174z" />
    <glyph glyph-name="asciicircum" unicode="^" horiz-adv-x="666" 
d="M393 708h80l152 -432h-83l-121 353l-219 -353h-83z" />
    <glyph glyph-name="underscore" unicode="_" horiz-adv-x="500" 
d="M-11 -75h500l-7 -50h-500z" />
    <glyph glyph-name="grave" unicode="`" horiz-adv-x="240" 
d="M265 564h-83l-128 144h128z" />
    <glyph glyph-name="a" unicode="a" horiz-adv-x="519" 
d="M356 228q-32 0 -66 -3.5t-63 -13.5t-49 -28t-24 -46q-5 -41 19.5 -59t71.5 -18q37 0 65 12.5t46.5 32.5t29.5 44.5t14 48.5l4 30h-48zM128 416q43 35 95.5 52.5t102.5 17.5q52 0 88 -13t57 -35t28 -50.5t3 -59.5l-34 -242q-4 -25 -5.5 -46t-2.5 -40h-80q1 18 3 36l4 36
h-2q-36 -46 -80 -65t-98 -19q-33 0 -61.5 9t-48.5 27t-29.5 44.5t-4.5 61.5q6 46 31 77t63.5 50.5t87 28t102.5 8.5h66l3 20q3 18 -1.5 36t-16.5 32.5t-32 23t-49 8.5q-26 0 -46.5 -5t-37 -12.5t-31 -17.5l-27.5 -19z" />
    <glyph glyph-name="b" unicode="b" horiz-adv-x="611" 
d="M324 72q36 0 66.5 12.5t54 34t38.5 52t20 66.5t-1.5 66.5t-24 52t-44.5 34t-63 12.5t-66.5 -12.5t-54 -34t-38.5 -52t-20 -66.5t1.5 -66.5t24 -52t44.5 -34t63 -12.5zM174 756h90l-49 -350h2q29 37 77 58.5t99 21.5q55 0 96.5 -19t68.5 -52.5t37.5 -79t3.5 -98.5
t-30.5 -98t-59.5 -79t-83.5 -53t-102.5 -19q-48 0 -90.5 21t-62.5 59h-2l-10 -68h-90z" />
    <glyph glyph-name="c" unicode="c" horiz-adv-x="482" 
d="M456 348q-21 26 -47 39.5t-64 13.5q-37 0 -66.5 -13.5t-51.5 -37t-35.5 -54t-17.5 -63.5q-5 -33 1.5 -62.5t23.5 -51.5t43.5 -34.5t61.5 -12.5q38 0 67.5 13.5t55.5 39.5l55 -64q-42 -39 -90.5 -56t-100.5 -17q-55 0 -98 18t-71 50.5t-40 78t-4 100.5t32.5 101t61.5 79
t85 51.5t104 18.5q52 0 97 -18.5t75 -56.5z" />
    <glyph glyph-name="d" unicode="d" horiz-adv-x="611" 
d="M307 72q36 0 66.5 12.5t54 34t38.5 52t20 66.5t-1.5 66.5t-24 52t-44.5 34t-63 12.5t-66.5 -12.5t-54 -34t-38.5 -52t-20 -66.5t1.5 -66.5t24 -52t44.5 -34t63 -12.5zM543 0h-90l10 68h-2q-32 -38 -80.5 -59t-96.5 -21q-55 0 -97 19t-68.5 53t-37 79t-3.5 98t31 98.5
t60 79t83 52.5t102 19q51 0 93 -21.5t61 -58.5h2l49 350h90z" />
    <glyph glyph-name="e" unicode="e" 
d="M459 276q3 30 -2 55t-19.5 43.5t-38.5 29t-58 10.5q-33 0 -62 -12.5t-51 -32.5t-36 -44.5t-17 -48.5h284zM165 204q-5 -31 5 -56.5t29.5 -43.5t47 -28t58.5 -10q42 0 75.5 19.5t64.5 51.5l61 -52q-88 -97 -224 -97q-56 0 -98.5 19t-69.5 52.5t-38 79t-3 98.5
q7 53 32 98.5t62.5 79t85 52.5t100.5 19q63 0 103.5 -22t63.5 -57.5t29 -80t0 -90.5l-4 -32h-380z" />
    <glyph glyph-name="f" unicode="f" horiz-adv-x="333" 
d="M159 396h-102l11 78h102l15 106q13 95 56 141.5t132 46.5q15 0 31.5 -1t34.5 -6l-21 -80q-12 5 -24 7t-26 2q-25 0 -41 -7.5t-26.5 -21.5t-16 -33.5t-8.5 -44.5l-15 -109h107l-11 -78h-108l-56 -396h-90z" />
    <glyph glyph-name="g" unicode="g" horiz-adv-x="611" 
d="M353 402q-36 0 -66.5 -12.5t-54 -34t-38.5 -52t-20 -66.5q-10 -72 26 -115.5t108 -43.5t120 43.5t58 115.5q5 36 -1.5 66.5t-24 52t-44.5 34t-63 12.5zM544 4q-8 -54 -33 -98.5t-63.5 -77t-89 -50.5t-108.5 -18q-68 0 -121.5 19t-98.5 66l72 76q30 -38 68 -57.5t90 -19.5
q50 0 85 14.5t58 37.5t35 52.5t16 59.5l10 70h-3q-32 -43 -79.5 -63.5t-96.5 -20.5q-52 0 -93.5 18.5t-69.5 51t-40 77t-4 96.5q7 52 30.5 97.5t59.5 79.5t83.5 53t102.5 19q48 0 90.5 -21t63.5 -59h2l10 68h90z" />
    <glyph glyph-name="h" unicode="h" 
d="M174 756h90l-50 -355h2q23 38 68 61.5t100 23.5q34 0 64 -10.5t50.5 -32.5t30 -56.5t2.5 -81.5l-43 -305h-90l39 280q5 33 -0.5 56.5t-18.5 38t-32 21t-40 6.5q-56 0 -99 -38t-55 -120l-34 -244h-90z" />
    <glyph glyph-name="i" unicode="i" horiz-adv-x="240" 
d="M145 644q4 27 26 46.5t49 19.5t44 -19.5t13 -46.5q-5 -27 -27 -46.5t-49 -19.5t-44 19.5t-12 46.5zM142 474h90l-67 -474h-90z" />
    <glyph glyph-name="j" unicode="j" horiz-adv-x="240" 
d="M145 644q4 27 26 46.5t49 19.5t44 -19.5t13 -46.5q-5 -27 -27 -46.5t-49 -19.5t-44 19.5t-12 46.5zM232 474l-77 -542q-2 -18 -8.5 -47.5t-24 -57t-50 -47.5t-86.5 -20q-15 0 -28.5 2t-27.5 7l21 83q8 -3 17.5 -5.5t18.5 -2.5q37 0 55 23.5t24 68.5l76 538h90z" />
    <glyph glyph-name="k" unicode="k" horiz-adv-x="519" 
d="M174 756h90l-68 -488l232 205h125l-251 -215l204 -258h-128l-185 246l-35 -246h-90z" />
    <glyph glyph-name="l" unicode="l" horiz-adv-x="240" 
d="M181 756h90l-106 -756h-90z" />
    <glyph glyph-name="m" unicode="m" horiz-adv-x="852" 
d="M135 474h84l-11 -74h2q5 10 19 25t36 28.5t49.5 23t59.5 9.5q103 0 136 -88q29 44 74 66t88 22q55 0 87.5 -18t48.5 -47.5t18.5 -67t-3.5 -77.5l-39 -276h-90l37 264q4 27 3.5 52t-8.5 44t-26.5 30.5t-51.5 11.5q-65 0 -98.5 -40t-42.5 -103l-36 -259h-90l35 248
q5 34 5.5 62t-7.5 48.5t-26 32t-51 11.5q-24 0 -47.5 -9.5t-43 -28.5t-33.5 -48.5t-20 -69.5l-35 -246h-90z" />
    <glyph glyph-name="n" unicode="n" 
d="M135 474h90l-11 -73h2q23 38 68 61.5t100 23.5q34 0 64 -10.5t50.5 -32.5t30 -56.5t2.5 -81.5l-43 -305h-90l39 280q5 33 -0.5 56.5t-18.5 38t-32 21t-40 6.5q-56 0 -99 -38t-55 -120l-34 -244h-90z" />
    <glyph glyph-name="o" unicode="o" horiz-adv-x="594" 
d="M78 237q7 52 33 97t65 79t87.5 53.5t101.5 19.5t96.5 -19.5t72.5 -53.5t42 -79t6 -97t-33 -97.5t-65 -79t-87.5 -53t-101.5 -19.5t-96 19.5t-72.5 53t-42.5 79t-6 97.5zM174 237q-5 -36 1.5 -66.5t24 -52t44.5 -34t63 -12.5t66.5 12.5t54 34t38.5 52t20 66.5t-1.5 66.5
t-24 52t-44.5 34t-63 12.5t-66.5 -12.5t-54 -34t-38.5 -52t-20 -66.5z" />
    <glyph glyph-name="p" unicode="p" horiz-adv-x="611" 
d="M370 402q-36 0 -66.5 -12.5t-54 -34t-38.5 -52t-20 -66.5t1.5 -66.5t24 -52t44.5 -34t63 -12.5t66.5 12.5t54 34t38.5 52t20 66.5t-1.5 66.5t-24 52t-44.5 34t-63 12.5zM135 474h90l-10 -68h2q32 38 80 59t96 21q55 0 97 -19t68.5 -53t37 -79.5t3.5 -97.5
q-8 -53 -31.5 -98.5t-59.5 -79t-83 -52.5t-102 -19q-51 0 -92.5 21.5t-60.5 58.5h-2l-50 -350h-90z" />
    <glyph glyph-name="q" unicode="q" horiz-adv-x="611" 
d="M353 402q-36 0 -66.5 -12.5t-54 -34t-38.5 -52t-20 -66.5t1.5 -66.5t24 -52t44.5 -34t63 -12.5t66.5 12.5t54 34t38.5 52t20 66.5t-1.5 66.5t-24 52t-44.5 34t-63 12.5zM511 -228h-90l42 296h-2q-29 -37 -77.5 -58.5t-99.5 -21.5q-55 0 -96.5 19t-68.5 52.5t-38 79
t-3 98.5q7 52 30.5 97.5t59.5 79.5t83.5 53t102.5 19q48 0 90.5 -21t63.5 -59h2l10 68h90z" />
    <glyph glyph-name="r" unicode="r" horiz-adv-x="370" 
d="M135 474h90l-11 -73h2q23 38 66 61.5t88 23.5q22 0 39 -6l-17 -97q-11 3 -21.5 5t-21.5 2q-66 0 -106.5 -37t-51.5 -115l-33 -238h-90z" />
    <glyph glyph-name="s" unicode="s" horiz-adv-x="444" 
d="M370 355q-13 20 -35 33.5t-56 13.5q-32 0 -57 -13.5t-29 -39.5q-3 -21 8.5 -34t29.5 -21t38 -12l35 -7q28 -7 52 -17t40 -26t23.5 -39t2.5 -56q-6 -40 -26.5 -68.5t-50.5 -46.5t-65.5 -26t-70.5 -8q-59 0 -100.5 18t-70.5 66l76 56q19 -22 43.5 -39t63.5 -17q17 0 35 3.5
t32.5 11t25 19t12.5 26.5q3 20 -8 33t-27.5 20.5t-35.5 12t-33 7.5q-28 7 -53 16t-43 24t-26.5 38t-3.5 57q5 37 24.5 64.5t47.5 45.5t61.5 27t66.5 9q48 0 89.5 -18t61.5 -60z" />
    <glyph glyph-name="t" unicode="t" horiz-adv-x="370" 
d="M378 396h-129l-31 -215q-3 -20 -4.5 -39.5t3 -35t16.5 -25t38 -9.5q16 0 34 3t32 11l-11 -82q-9 -5 -20.5 -8t-23.5 -4.5t-22.5 -2.5t-17.5 -1q-52 0 -78.5 14.5t-36.5 37.5t-8.5 51.5t5.5 57.5l35 247h-104l11 78h104l18 133h90l-18 -133h129z" />
    <glyph glyph-name="u" unicode="u" 
d="M488 0h-90l10 73h-2q-23 -38 -68 -61.5t-100 -23.5q-35 0 -64.5 10.5t-50 32.5t-29.5 56.5t-2 81.5l43 305h90l-40 -280q-5 -33 1 -56.5t18.5 -38t31.5 -21t40 -6.5q28 0 53.5 9t46 28.5t34.5 49.5t20 71l35 244h90z" />
    <glyph glyph-name="v" unicode="v" horiz-adv-x="500" 
d="M78 474h104l91 -363l187 363h96l-253 -474h-99z" />
    <glyph glyph-name="w" unicode="w" horiz-adv-x="759" 
d="M78 474h101l57 -354h2l163 354h95l70 -354h2l152 354h95l-220 -474h-91l-75 354h-2l-163 -354h-97z" />
    <glyph glyph-name="x" unicode="x" horiz-adv-x="519" 
d="M234 253l-137 221h116l91 -168l137 168h109l-193 -221l156 -253h-116l-112 199l-168 -199h-111z" />
    <glyph glyph-name="y" unicode="y" horiz-adv-x="500" 
d="M78 474h104l89 -370h2l186 370h97l-306 -576q-17 -31 -33.5 -56.5t-37 -43.5t-47.5 -28t-64 -10q-20 0 -40 2.5t-38 10.5l23 82q25 -11 52 -11q21 0 36.5 5.5t27 16t21 24.5t18.5 32l40 75z" />
    <glyph glyph-name="z" unicode="z" horiz-adv-x="463" 
d="M46 81l314 315h-260l11 78h370l-12 -80l-315 -316h285l-11 -78h-393z" />
    <glyph glyph-name="braceleft" unicode="{" horiz-adv-x="333" 
d="M397 660h-45q-15 0 -25.5 -7.5t-18 -20t-12.5 -28t-7 -31.5l-22 -151q-4 -35 -17 -59t-29 -40t-31.5 -24t-24.5 -10l-1 -3q9 -1 22.5 -8t25.5 -22t18 -40.5t-1 -63.5l-21 -150q-2 -15 -1.5 -30.5t4.5 -28t12.5 -20t23.5 -7.5h45l-10 -72h-75q-19 0 -36.5 9t-29.5 27.5
t-17.5 47.5t0.5 69l18 134q6 55 -13.5 86t-53.5 31l11 78q34 0 62 31t38 86l22 158q4 32 17 56.5t30.5 41t37.5 25t39 8.5h75z" />
    <glyph glyph-name="bar" unicode="|" horiz-adv-x="222" 
d="M178 756h78l-109 -774h-78z" />
    <glyph glyph-name="braceright" unicode="}" horiz-adv-x="333" 
d="M17 -84h45q15 0 25.5 7.5t18 20t12.5 28t7 31.5l22 151q4 35 17 59t29 40t31.5 24t24.5 10l1 3q-9 1 -22.5 8t-25.5 22t-18 40.5t1 63.5l21 150q2 15 1.5 30.5t-4.5 28t-12.5 20t-23.5 7.5h-45l10 72h75q19 0 36.5 -9t29.5 -27.5t17.5 -47.5t-0.5 -69l-18 -134
q-8 -55 12.5 -86t54.5 -31l-11 -78q-34 0 -63 -31t-37 -86l-23 -158q-4 -32 -17 -56.5t-30 -41t-37 -25t-39 -8.5h-75z" />
    <glyph glyph-name="asciitilde" unicode="~" horiz-adv-x="666" 
d="M614 316q-37 -51 -72 -69.5t-68 -18.5q-29 0 -56.5 11t-54.5 25q-26 14 -51.5 25t-49.5 11q-16 0 -29.5 -6.5t-25 -17t-21.5 -23t-18 -25.5l-31 62q29 39 63 63.5t82 24.5q30 0 57 -11t51 -25q25 -14 48 -25.5t46 -11.5q24 0 48 15.5t51 57.5z" />
    <glyph glyph-name="Euro" 
d="M590 609q-21 17 -53.5 25.5t-73.5 8.5q-65 0 -118 -39.5t-86 -120.5h276l-27 -67h-271q-4 -17 -7.5 -35t-6.5 -38q-2 -13 -3 -25q-2 -12 -3 -23h242l-26 -65h-219q2 -84 35.5 -126t108.5 -42q42 0 74.5 16.5t58.5 42.5l42 -49q-31 -35 -81.5 -59.5t-108.5 -24.5
q-107 0 -160 61.5t-56 180.5h-72l28 65h46q1 12 3 24l4 27q5 37 12 70h-66l31 67h57q22 60 54.5 104.5t72.5 74t85.5 44t95.5 14.5q42 0 80.5 -10t62.5 -26z" />
    <glyph glyph-name="Euro" unicode="&#x20ac;" 
d="M590 609q-21 17 -53.5 25.5t-73.5 8.5q-65 0 -118 -39.5t-86 -120.5h276l-27 -67h-271q-4 -17 -7.5 -35t-6.5 -38q-2 -13 -3 -25q-2 -12 -3 -23h242l-26 -65h-219q2 -84 35.5 -126t108.5 -42q42 0 74.5 16.5t58.5 42.5l42 -49q-31 -35 -81.5 -59.5t-108.5 -24.5
q-107 0 -160 61.5t-56 180.5h-72l28 65h46q1 12 3 24l4 27q5 37 12 70h-66l31 67h57q22 60 54.5 104.5t72.5 74t85.5 44t95.5 14.5q42 0 80.5 -10t62.5 -26z" />
    <glyph glyph-name="quotesinglbase" unicode="&#x201a;" horiz-adv-x="278" 
d="M119 -132h-82l104 246h97z" />
    <glyph glyph-name="florin" unicode="&#x192;" 
d="M499 353h-134l-125 -368q-20 -59 -67 -94t-108 -35q-29 0 -51.5 7t-42.5 18l48 71q30 -12 53 -12q22 0 37 8.5t25 21.5t16 29l11 30l109 324h-108l10 72h122l47 141q23 69 70 111.5t104 42.5q32 0 62 -5.5t52 -18.5l-51 -75q-10 8 -22 11.5t-34 3.5q-26 0 -53.5 -22
t-45.5 -78l-34 -111h120z" />
    <glyph glyph-name="quotedblbase" unicode="&#x201e;" horiz-adv-x="519" 
d="M328 -132h-82l104 246h97zM151 -132h-82l104 246h97z" />
    <glyph glyph-name="ellipsis" unicode="&#x2026;" horiz-adv-x="1000" 
d="M832 -6q-27 0 -44 19.5t-13 46.5t26.5 46.5t49.5 19.5t43.5 -19.5t12.5 -46.5t-26 -46.5t-49 -19.5zM499 -6q-27 0 -44 19.5t-13 46.5t26.5 46.5t49.5 19.5t43.5 -19.5t12.5 -46.5t-26 -46.5t-49 -19.5zM166 -6q-27 0 -44 19.5t-13 46.5t26.5 46.5t49.5 19.5t43.5 -19.5
t12.5 -46.5t-26 -46.5t-49 -19.5z" />
    <glyph glyph-name="dagger" unicode="&#x2020;" 
d="M293 427h-198l11 78h198l29 203h90l-29 -203h198l-11 -78h-198l-78 -553h-90z" />
    <glyph glyph-name="daggerdbl" unicode="&#x2021;" 
d="M242 66h-192l11 78h192l43 306h-192l11 78h192l26 180h90l-26 -180h192l-11 -78h-192l-43 -306h192l-11 -78h-192l-27 -192h-90z" />
    <glyph glyph-name="circumflex" unicode="&#x2c6;" horiz-adv-x="240" 
d="M273 564l-60 96l-88 -96h-91l133 144h106l91 -144h-91z" />
    <glyph glyph-name="perthousand" unicode="&#x2030;" horiz-adv-x="1056" 
d="M170 558q-5 -38 17.5 -64.5t60.5 -26.5q19 0 36.5 7t31.5 19.5t23 29t12 35.5q5 38 -17.5 64t-60.5 26q-19 0 -36.5 -7t-31.5 -19t-23 -28.5t-12 -35.5zM98 558q5 34 22 63.5t42 51.5t56 34.5t65 12.5t62 -12.5t47 -34.5t27.5 -51.5t3.5 -63.5t-21.5 -63.5t-41.5 -51.5
t-56.5 -35t-65.5 -13t-61.5 13t-46.5 35t-28 51.5t-4 63.5zM151 -31l-58 31l549 740l56 -30zM881 54q19 0 36.5 7t31.5 19.5t23 29t12 35.5q5 38 -17.5 64t-60.5 26q-19 0 -36.5 -7t-31.5 -19t-23 -28.5t-12 -35.5q-5 -38 17.5 -64.5t60.5 -26.5zM731 145q5 34 22 63.5
t42 51.5t56 34.5t65 12.5t62 -12.5t47 -34.5t27.5 -51.5t3.5 -63.5t-21.5 -63.5t-42 -51.5t-57 -35t-65.5 -13t-61.5 13t-46.5 35t-27.5 51.5t-3.5 63.5zM515 54q19 0 36.5 7t31.5 19.5t23 29t12 35.5q5 38 -17.5 64t-60.5 26q-19 0 -36.5 -7t-31.5 -19t-23 -28.5t-12 -35.5
q-5 -38 17.5 -64.5t60.5 -26.5zM504 -18q-34 0 -61.5 13t-46.5 35t-27.5 51.5t-3.5 63.5t22 63.5t42 51.5t56 34.5t65 12.5t62 -12.5t47 -34.5t27.5 -51.5t3.5 -63.5t-21.5 -63.5t-42 -51.5t-57 -35t-65.5 -13z" />
    <glyph glyph-name="Scaron" unicode="&#x160;" 
d="M133 148q20 -39 58 -57.5t81 -18.5q24 0 50 7.5t48.5 22.5t39 37t20.5 51q6 41 -17 62.5t-60 36t-80 28t-78.5 37.5t-56 64.5t-10.5 109.5q4 31 23 66t52 64t81 48.5t112 19.5q29 0 56.5 -3.5t52.5 -12.5t46 -25t38 -40l-88 -71q-14 28 -45 45t-73 17q-40 0 -68 -10.5
t-46 -27t-27.5 -35.5t-11.5 -35q-6 -45 16.5 -69t59 -39t80 -27t79.5 -33.5t56.5 -58t11.5 -100.5q-7 -51 -32 -92t-62.5 -69t-84.5 -43t-98 -15q-68 0 -125.5 24t-86.5 74zM239 892h87l64 -96l88 96h91l-133 -144h-106z" />
    <glyph glyph-name="guilsinglleft" unicode="&#x2039;" horiz-adv-x="315" 
d="M88 243l176 216l56 -41l-142 -175l94 -175l-68 -41z" />
    <glyph glyph-name="OE" unicode="&#x152;" horiz-adv-x="981" 
d="M608 618h-61q-74 0 -133 -21.5t-101.5 -57.5t-69 -84t-33.5 -101q-8 -56 4.5 -104.5t45.5 -84t86 -55.5t127 -20h61zM923 0h-456q-98 0 -170.5 26.5t-118 73.5t-63.5 112t-7 142q11 80 48.5 145.5t96.5 112t138.5 71.5t175.5 25h444l-13 -90h-294l-30 -211h276l-12 -90
h-276l-32 -227h306z" />
    <glyph glyph-name="Zcaron" horiz-adv-x="593" 
d="M45 90l477 528h-391l13 90h511l-13 -90l-475 -528h407l-13 -90h-529zM258 892h87l64 -96l88 96h91l-133 -144h-106z" />
    <glyph glyph-name="Zcaron" unicode="&#x17d;" horiz-adv-x="593" 
d="M45 90l477 528h-391l13 90h511l-13 -90l-475 -528h407l-13 -90h-529zM258 892h87l64 -96l88 96h91l-133 -144h-106z" />
    <glyph glyph-name="quoteleft" unicode="&#x2018;" horiz-adv-x="278" 
d="M240 708h82l-104 -246h-97z" />
    <glyph glyph-name="quoteright" unicode="&#x2019;" horiz-adv-x="278" 
d="M203 462h-82l104 246h97z" />
    <glyph glyph-name="quotedblleft" unicode="&#x201c;" horiz-adv-x="519" 
d="M427 462h-97l119 246h82zM250 462h-97l119 246h82z" />
    <glyph glyph-name="quotedblright" unicode="&#x201d;" horiz-adv-x="519" 
d="M412 462h-82l104 246h97zM235 462h-82l104 246h97z" />
    <glyph glyph-name="bullet" unicode="&#x2022;" horiz-adv-x="500" 
d="M123 354q5 37 23.5 69t46 56t61.5 38t71 14t67 -14t51 -38t30 -56t4 -69t-23.5 -69t-46 -56t-61.5 -38t-71 -14t-67 14t-51 38t-30 56t-4 69z" />
    <glyph glyph-name="endash" unicode="&#x2013;" horiz-adv-x="500" 
d="M529 204h-500l11 78h500z" />
    <glyph glyph-name="emdash" unicode="&#x2014;" horiz-adv-x="1000" 
d="M1029 204h-1000l11 78h1000z" />
    <glyph glyph-name="tilde" unicode="&#x2dc;" horiz-adv-x="240" 
d="M33 576q6 19 16.5 38t25.5 33.5t33.5 23.5t40.5 9q23 0 42 -7.5l38 -15.5q14 -6 25 -11.5t27 -5.5q20 0 33.5 13t21.5 31h48q-6 -19 -15 -37.5t-22.5 -33.5t-31 -24t-39.5 -9q-21 0 -41 6.5t-38 14.5l-30 12.5t-33 6.5q-19 0 -32 -13.5t-21 -30.5h-48z" />
    <glyph glyph-name="trademark" unicode="&#x2122;" horiz-adv-x="1000" 
d="M539 708h119l66 -316h3l156 316h119l-58 -412h-78l48 344h-2l-168 -344h-63l-72 344h-2l-48 -344h-78zM248 642h-124l10 66h326l-10 -66h-124l-48 -346h-78z" />
    <glyph glyph-name="scaron" unicode="&#x161;" horiz-adv-x="444" 
d="M370 355q-13 20 -35 33.5t-56 13.5q-32 0 -57 -13.5t-29 -39.5q-3 -21 8.5 -34t29.5 -21t38 -12l35 -7q28 -7 52 -17t40 -26t23.5 -39t2.5 -56q-6 -40 -26.5 -68.5t-50.5 -46.5t-65.5 -26t-70.5 -8q-59 0 -100.5 18t-70.5 66l76 56q19 -22 43.5 -39t63.5 -17q17 0 35 3.5
t32.5 11t25 19t12.5 26.5q3 20 -8 33t-27.5 20.5t-35.5 12t-33 7.5q-28 7 -53 16t-43 24t-26.5 38t-3.5 57q5 37 24.5 64.5t47.5 45.5t61.5 27t66.5 9q48 0 89.5 -18t61.5 -60zM157 708h87l64 -96l88 96h91l-133 -144h-106z" />
    <glyph glyph-name="guilsinglright" unicode="&#x203a;" horiz-adv-x="315" 
d="M64 68l141 175l-93 175l68 41l115 -216l-175 -216z" />
    <glyph glyph-name="oe" unicode="&#x153;" horiz-adv-x="926" 
d="M471 237q4 32 0 63t-19 55t-41 38.5t-66 14.5q-38 0 -68.5 -13.5t-53 -36.5t-36.5 -54t-19 -67q-5 -35 0 -66t20 -54.5t40.5 -37t60.5 -13.5q46 0 78.5 14.5t54 38.5t33 55t16.5 63zM830 276q3 25 -2 50t-18.5 44.5t-35.5 31.5t-54 12t-58.5 -13.5t-46.5 -33.5
t-32.5 -44.5t-15.5 -46.5h263zM880 86q-82 -98 -213 -98q-29 0 -56.5 5t-51.5 16.5t-42.5 29t-30.5 41.5q-11 -13 -27.5 -29t-41.5 -30t-59 -23.5t-80 -9.5q-57 0 -99.5 19t-68.5 52.5t-36 79t-2 98.5q7 54 31.5 99.5t61.5 78.5t85 52t103 19q121 0 180 -91q14 16 33 32
t43.5 29t55 21.5t67.5 8.5q51 0 89.5 -17.5t63.5 -49t34.5 -75t2.5 -96.5l-6 -44h-359q-4 -26 0.5 -51t19 -44.5t40 -31t63.5 -11.5q43 0 76 18.5t57 50.5z" />
    <glyph glyph-name="zcaron" horiz-adv-x="463" 
d="M46 81l314 315h-260l11 78h370l-12 -80l-315 -316h285l-11 -78h-393zM167 708h87l64 -96l88 96h91l-133 -144h-106z" />
    <glyph glyph-name="zcaron" unicode="&#x17e;" horiz-adv-x="463" 
d="M46 81l314 315h-260l11 78h370l-12 -80l-315 -316h285l-11 -78h-393zM167 708h87l64 -96l88 96h91l-133 -144h-106z" />
    <glyph glyph-name="Ydieresis" unicode="&#x178;" horiz-adv-x="612" 
d="M300 302l-210 406h123l149 -311l243 311h117l-326 -406l-42 -302h-96zM534 898q23 0 40.5 -16t13.5 -41q-4 -27 -24 -45t-47 -18t-42 18t-11 45q4 25 25.5 41t44.5 16zM330 898q23 0 40.5 -16t13.5 -41q-4 -27 -24 -45t-47 -18t-42 18t-11 45q4 25 25.5 41t44.5 16z" />
    <glyph glyph-name="exclamdown" unicode="&#xa1;" horiz-adv-x="278" 
d="M265 426q-4 -27 -26 -46.5t-49 -19.5t-44 19.5t-13 46.5t26 46.5t49 19.5t44 -19.5t13 -46.5zM133 282h96l-71 -504h-96z" />
    <glyph glyph-name="cent" unicode="&#xa2;" 
d="M345 408q-32 -5 -57.5 -20.5t-44.5 -38.5t-31 -51.5t-16 -58.5q-5 -31 -0.5 -59.5t17 -52t34 -39.5t50.5 -22zM351 66q64 2 114 52l50 -58q-34 -33 -79 -50.5t-96 -21.5l-9 -66h-54l9 66q-49 5 -86 26t-60.5 54t-32.5 76.5t-2 92.5q7 51 28 93.5t54 74.5t75.5 53t93.5 28
l10 66h54l-10 -66q48 -2 89.5 -21.5t67.5 -54.5l-74 -59q-15 23 -40 39.5t-54 17.5z" />
    <glyph glyph-name="sterling" unicode="&#xa3;" 
d="M478 328h-162l-34 -244h246l-12 -84h-444l12 84h102l34 244h-96l10 72h96l14 100q6 43 25.5 83t51.5 70.5t75.5 48.5t98.5 18q48 0 89.5 -14.5t70.5 -47.5l-70 -70q-20 22 -43.5 35t-48.5 13q-26 0 -51.5 -8.5t-46.5 -27.5t-36.5 -49.5t-21.5 -74.5l-11 -76h162z" />
    <glyph glyph-name="currency" unicode="&#xa4;" 
d="M149 355q-5 -37 4.5 -69.5t30.5 -57t51.5 -38.5t67.5 -14t71.5 14t62.5 38.5t46.5 57t23.5 69.5t-4.5 69.5t-30.5 57t-51.5 38.5t-67.5 14t-71.5 -14t-62.5 -38.5t-46.5 -57t-23.5 -69.5zM164 611l42 -48q39 25 79 37t79 12t76 -12t68 -37l56 48l49 -56l-56 -49
q20 -34 26.5 -72.5t1.5 -78.5q-6 -40 -23.5 -78.5t-46.5 -72.5l42 -49l-65 -57l-42 49q-37 -25 -77 -37t-81 -12q-40 0 -77 12.5t-67 36.5l-56 -49l-49 57l56 49q-20 33 -27 72t-1 79q5 41 23 79.5t47 71.5l-42 49z" />
    <glyph glyph-name="yen" unicode="&#xa5;" 
d="M262 186h-171l9 66h171l8 53l-13 28h-154l9 66h114l-140 309h100l134 -316l230 316h102l-230 -309h116l-9 -66h-154l-21 -28l-8 -53h171l-9 -66h-171l-26 -186h-84z" />
    <glyph glyph-name="brokenbar" unicode="&#xa6;" horiz-adv-x="222" 
d="M178 756h78l-42 -304h-78zM112 286h78l-43 -304h-78z" />
    <glyph glyph-name="section" unicode="&#xa7;" 
d="M299 400q-29 -11 -54.5 -28.5t-30.5 -50.5q-3 -23 4 -39t20 -27t29 -19.5l31 -16.5l72 -37q25 14 46.5 38t25.5 50q3 18 -3 32t-16.5 25t-23.5 19.5t-26 15.5zM481 580q-9 32 -33.5 46.5t-59.5 15.5q-39 0 -71.5 -18.5t-38.5 -59.5q-4 -30 15 -50t49.5 -36.5t66.5 -32.5
t66 -38t47 -52.5t11 -75.5q-6 -44 -32.5 -77.5t-68.5 -53.5q28 -21 40.5 -51.5t7.5 -69.5q-6 -43 -28.5 -75t-55 -53.5t-72 -32t-78.5 -10.5q-66 0 -117.5 28.5t-69.5 92.5l93 41q8 -42 39 -60t74 -18q19 0 38 5t34.5 15.5t26.5 27t14 39.5q4 26 -15.5 45t-50 35.5
t-66.5 33.5t-65.5 37.5t-47.5 48t-13 66.5q8 60 40.5 95t78.5 56q-33 20 -50.5 49t-12.5 69q6 40 28 71t53.5 51.5t69.5 31t75 10.5q27 0 53.5 -5.5t49.5 -17.5t40 -31t26 -46z" />
    <glyph glyph-name="dieresis" unicode="&#xa8;" horiz-adv-x="240" 
d="M322 714q23 0 40.5 -16t13.5 -41q-4 -27 -24 -45t-47 -18t-42 18t-11 45q4 25 25.5 41t44.5 16zM118 714q23 0 40.5 -16t13.5 -41q-4 -27 -24 -45t-47 -18t-42 18t-11 45q4 25 25.5 41t44.5 16z" />
    <glyph glyph-name="copyright" unicode="&#xa9;" horiz-adv-x="800" 
d="M144 354q-9 -63 7 -119t52 -97.5t88.5 -65.5t115.5 -24t122.5 24t106.5 65.5t79 97.5t41 119t-7 119t-52 97.5t-88.5 65.5t-115.5 24t-122.5 -24t-106.5 -65.5t-79 -97.5t-41 -119zM629 286q-26 -71 -81 -114t-127 -43q-52 0 -91 16.5t-63.5 46.5t-33.5 72t-2 93t27.5 93
t52.5 72t75 46.5t96 16.5q75 0 120.5 -38.5t47.5 -114.5h-77q-5 37 -27.5 59t-72.5 22q-72 0 -112.5 -41t-51.5 -113q-5 -33 1 -61.5t21.5 -50t40.5 -34t59 -12.5q48 0 77.5 23t43.5 62h77zM78 354q11 77 49.5 144.5t96.5 118t129.5 80t148.5 29.5t140.5 -29.5t107 -80
t63.5 -118t9 -144.5t-50 -144.5t-96.5 -118t-129.5 -80t-149 -29.5t-140.5 29.5t-107 80t-63 118t-8.5 144.5z" />
    <glyph glyph-name="ordfeminine" unicode="&#xaa;" horiz-adv-x="337" 
d="M319 560q-21 0 -46 -1t-46.5 -5.5t-36.5 -15t-18 -29.5q-3 -21 14 -28.5t40 -7.5q42 0 64.5 19t27.5 49l3 19h-2zM302 425l6 44l-2 1q-17 -29 -44.5 -40t-62.5 -11q-20 0 -38.5 5.5t-32 16t-20 26.5t-3.5 38q5 37 28 58t54 31t65.5 12t62.5 2h12l2 10q3 20 -12.5 34
t-48.5 14q-25 0 -49.5 -8t-44.5 -25l-29 45q27 21 61.5 31.5t67.5 10.5q43 0 68.5 -8.5t38 -22t15 -31.5t-0.5 -37l-27 -196h-66z" />
    <glyph glyph-name="guillemotleft" unicode="&#xab;" horiz-adv-x="500" 
d="M279 243l176 216l56 -41l-142 -175l94 -175l-68 -41zM81 243l176 216l56 -41l-142 -175l94 -175l-68 -41z" />
    <glyph glyph-name="logicalnot" unicode="&#xac;" horiz-adv-x="666" 
d="M620 141h-78l28 201h-456l11 78h534z" />
    <glyph glyph-name="registered" unicode="&#xae;" horiz-adv-x="800" 
d="M144 354q-9 -63 7 -119t52 -97.5t88.5 -65.5t115.5 -24t122.5 24t106.5 65.5t79 97.5t41 119t-7 119t-52 97.5t-88.5 65.5t-115.5 24t-122.5 -24t-106.5 -65.5t-79 -97.5t-41 -119zM78 354q11 77 49.5 144.5t96.5 118t129.5 80t148.5 29.5t140.5 -29.5t107 -80t63.5 -118
t9 -144.5t-50 -144.5t-96.5 -118t-129.5 -80t-149 -29.5t-140.5 29.5t-107 80t-63 118t-8.5 144.5zM389 384h57q18 0 36 1.5t33.5 7.5t26 18t13.5 33t-4.5 33t-21 18t-31 7t-35.5 1h-57zM337 569h164q77 0 109 -33t23 -95q-8 -56 -40.5 -84t-77.5 -33l85 -180h-82l-81 174
h-57l-25 -174h-78z" />
    <glyph glyph-name="macron" unicode="&#xaf;" horiz-adv-x="240" 
d="M348 600h-288l10 66h288z" />
    <glyph glyph-name="macron" unicode="&#x2c9;" horiz-adv-x="240" 
d="M348 600h-288l10 66h288z" />
    <glyph glyph-name="degree" unicode="&#xb0;" horiz-adv-x="400" 
d="M197 571q-5 -35 16 -59t56 -24t62 24t32 59t-15.5 59t-55.5 24t-62.5 -24t-32.5 -59zM131 571q4 31 20 58t39 47t51.5 32t59.5 12t56.5 -12t43 -32t25 -47t3.5 -58t-19.5 -58t-39 -47.5t-52 -32t-59.5 -11.5t-56.5 11.5t-42.5 32t-25 47.5t-4 58z" />
    <glyph glyph-name="plusminus" unicode="&#xb1;" horiz-adv-x="666" 
d="M84 129h534l-11 -78h-534zM121 393h228l23 163h78l-23 -163h228l-11 -78h-228l-21 -150h-78l21 150h-228z" />
    <glyph glyph-name="twosuperior" unicode="&#xb2;" horiz-adv-x="361" 
d="M77 365l202 160q17 14 34.5 32t20.5 41q4 26 -13 41t-44 15q-29 0 -49.5 -16t-26.5 -43l-84 6q14 59 60 89t109 30q31 0 57.5 -7.5t44.5 -22.5t26 -37.5t4 -52.5q-5 -40 -29 -69t-59 -55l-158 -121h213l-9 -66h-309z" />
    <glyph glyph-name="threesuperior" unicode="&#xb3;" horiz-adv-x="361" 
d="M216 543h18q17 0 33.5 1.5t30 7.5t22.5 17.5t12 30.5q4 24 -12 39t-45 15q-24 0 -44 -11.5t-31 -33.5l-81 20q22 48 66 69.5t95 21.5q30 0 55.5 -7t43.5 -21t27 -35t5 -49q-5 -35 -29 -61.5t-62 -34.5v-2q43 -5 61.5 -34.5t12.5 -68.5q-4 -30 -20 -53t-39.5 -39
t-52.5 -24t-60 -8q-57 0 -96.5 23t-47.5 76l85 20q5 -25 20.5 -39t47.5 -14q31 0 56.5 17.5t29.5 46.5q3 21 -4.5 33.5t-21 19.5t-31.5 9t-36 2h-17z" />
    <glyph glyph-name="acute" unicode="&#xb4;" horiz-adv-x="240" 
d="M258 708h128l-170 -144h-83z" />
    <glyph glyph-name="mu" unicode="&#xb5;" 
d="M135 474h90l-40 -280q-5 -33 1 -56.5t18.5 -38t31.5 -21t40 -6.5q28 0 53.5 9t46 28.5t34.5 49.5t20 71l35 244h90l-67 -474h-90l10 73h-2q-23 -38 -68 -61.5t-100 -23.5q-46 0 -79 18l-33 -234h-90z" />
    <glyph glyph-name="mu" unicode="&#x3bc;" 
d="M135 474h90l-40 -280q-5 -33 1 -56.5t18.5 -38t31.5 -21t40 -6.5q28 0 53.5 9t46 28.5t34.5 49.5t20 71l35 244h90l-67 -474h-90l10 73h-2q-23 -38 -68 -61.5t-100 -23.5q-46 0 -79 18l-33 -234h-90z" />
    <glyph glyph-name="paragraph" unicode="&#xb6;" horiz-adv-x="600" 
d="M305 318q-46 0 -82.5 14.5t-60.5 39t-35 58.5t-5 73q14 98 82.5 151.5t174.5 53.5h249l-118 -834h-78l108 768h-112l-108 -768h-78z" />
    <glyph glyph-name="periodcentered" unicode="&#xb7;" horiz-adv-x="278" 
d="M116 303q4 27 26 46.5t49 19.5t44 -19.5t13 -46.5t-26.5 -46.5t-49.5 -19.5t-43.5 19.5t-12.5 46.5z" />
    <glyph glyph-name="periodcentered" unicode="&#x2219;" horiz-adv-x="278" 
d="M116 303q4 27 26 46.5t49 19.5t44 -19.5t13 -46.5t-26.5 -46.5t-49.5 -19.5t-43.5 19.5t-12.5 46.5z" />
    <glyph glyph-name="cedilla" unicode="&#xb8;" horiz-adv-x="240" 
d="M1 -165q17 -8 36.5 -11.5t39.5 -3.5q9 0 20 2t20.5 6.5t17 12.5t9.5 21q3 19 -5.5 28t-22.5 11.5t-30.5 0t-31.5 -6.5l-18 18l73 87h49l-53 -61h29q17 0 33 -4t28 -13t18 -22.5t3 -32.5q-4 -27 -18 -45t-33.5 -29t-42.5 -16t-44 -5q-27 0 -53 5.5t-49 17.5z" />
    <glyph glyph-name="onesuperior" unicode="&#xb9;" horiz-adv-x="361" 
d="M245 648l-95 -72l-36 46l142 98h71l-60 -431h-72z" />
    <glyph glyph-name="ordmasculine" unicode="&#xba;" horiz-adv-x="386" 
d="M286 660q-45 0 -72 -24.5t-33 -66.5t14 -66t65 -24t72 24t33 66t-14 66.5t-65 24.5zM294 720q75 0 114 -41t29 -110q-10 -68 -60 -109t-125 -41t-114 40.5t-29 109.5q10 68 60 109.5t125 41.5z" />
    <glyph glyph-name="guillemotright" unicode="&#xbb;" horiz-adv-x="500" 
d="M289 243l-175 -216l-56 41l141 175l-93 175l68 41zM487 243l-175 -216l-56 41l141 175l-93 175l68 41z" />
    <glyph glyph-name="onequarter" unicode="&#xbc;" horiz-adv-x="834" 
d="M695 740l56 -32l-543 -740l-56 32zM716 347h-2l-143 -187h118zM686 94h-196l8 58l223 279h79l-39 -271h62l-9 -66h-62l-13 -94h-66zM251 648l-95 -72l-36 46l142 98h71l-60 -431h-72z" />
    <glyph glyph-name="onehalf" unicode="&#xbd;" horiz-adv-x="834" 
d="M683 740l56 -32l-543 -740l-56 32zM505 76l201 160q17 14 34.5 32t20.5 41q4 26 -13 41t-44 15q-29 0 -49.5 -16t-26.5 -43l-83 6q14 59 60 89t109 30q31 0 57 -7.5t44 -22.5t26.5 -37.5t4.5 -52.5q-6 -40 -30 -69t-59 -55l-158 -121h213l-9 -66h-309zM249 648l-95 -72
l-36 46l142 98h71l-60 -431h-72z" />
    <glyph glyph-name="threequarters" unicode="&#xbe;" horiz-adv-x="834" 
d="M735 740l56 -32l-543 -740l-56 32zM742 347h-2l-143 -187h118zM706 94h-196l8 58l223 279h79l-39 -271h62l-9 -66h-62l-13 -94h-66zM215 543h18q17 0 33.5 1.5t30 7.5t22.5 17.5t12 30.5q4 24 -12 39t-45 15q-24 0 -44 -11.5t-31 -33.5l-81 20q22 48 66 69.5t95 21.5
q30 0 55.5 -7t43.5 -21t27 -35t5 -49q-5 -35 -29 -61.5t-62 -34.5v-2q43 -5 61.5 -34.5t12.5 -68.5q-4 -30 -20 -53t-39.5 -39t-52.5 -24t-60 -8q-57 0 -96.5 23t-47.5 76l85 20q5 -25 20.5 -39t47.5 -14q31 0 56.5 17.5t29.5 46.5q3 21 -4.5 33.5t-21 19.5t-31.5 9t-36 2
h-17z" />
    <glyph glyph-name="questiondown" unicode="&#xbf;" horiz-adv-x="500" 
d="M237 426q4 27 26 46.5t49 19.5t44 -19.5t13 -46.5t-26 -46.5t-49 -19.5t-44 19.5t-13 46.5zM330 288l-8 -61q-4 -27 -10 -45t-16.5 -32.5t-26 -28l-37.5 -32.5l-36.5 -30.5t-34 -32t-26.5 -35.5t-14 -41q-3 -23 2.5 -42.5t17.5 -33.5t30.5 -22t40.5 -8q49 0 84 31t48 81
l100 -10q-25 -87 -91.5 -136.5t-154.5 -49.5q-42 0 -76.5 12.5t-58.5 36t-34.5 58t-4.5 78.5q5 38 20.5 66.5t38.5 53.5l69 62l11 9q18 15 29 25.5t18 22t11 25.5t7 35l6 44h96z" />
    <glyph glyph-name="Agrave" unicode="&#xc0;" horiz-adv-x="704" 
d="M521 259l-86 325h-2l-180 -325h268zM413 708h87l203 -708h-112l-46 175h-337l-95 -175h-112zM523 748h-83l-128 144h128z" />
    <glyph glyph-name="Aacute" unicode="&#xc1;" horiz-adv-x="704" 
d="M521 259l-86 325h-2l-180 -325h268zM413 708h87l203 -708h-112l-46 175h-337l-95 -175h-112zM516 892h128l-170 -144h-83z" />
    <glyph glyph-name="Acircumflex" unicode="&#xc2;" horiz-adv-x="704" 
d="M521 259l-86 325h-2l-180 -325h268zM413 708h87l203 -708h-112l-46 175h-337l-95 -175h-112zM531 748l-60 96l-88 -96h-91l133 144h106l91 -144h-91z" />
    <glyph glyph-name="Atilde" unicode="&#xc3;" horiz-adv-x="704" 
d="M521 259l-86 325h-2l-180 -325h268zM413 708h87l203 -708h-112l-46 175h-337l-95 -175h-112zM291 760q6 19 16.5 38t25.5 33.5t33.5 23.5t40.5 9q23 0 42 -7.5l38 -15.5q14 -6 25 -11.5t27 -5.5q20 0 33.5 13t21.5 31h48q-6 -19 -15 -37.5t-22.5 -33.5t-31 -24t-39.5 -9
q-21 0 -41 6.5t-38 14.5l-30 12.5t-33 6.5q-19 0 -32 -13.5t-21 -30.5h-48z" />
    <glyph glyph-name="Adieresis" unicode="&#xc4;" horiz-adv-x="704" 
d="M521 259l-86 325h-2l-180 -325h268zM413 708h87l203 -708h-112l-46 175h-337l-95 -175h-112zM580 898q23 0 40.5 -16t13.5 -41q-4 -27 -24 -45t-47 -18t-42 18t-11 45q4 25 25.5 41t44.5 16zM376 898q23 0 40.5 -16t13.5 -41q-4 -27 -24 -45t-47 -18t-42 18t-11 45
q4 25 25.5 41t44.5 16z" />
    <glyph glyph-name="Aring" unicode="&#xc5;" horiz-adv-x="704" 
d="M521 259l-86 325h-2l-180 -325h268zM413 708h87l203 -708h-112l-46 175h-337l-95 -175h-112zM527 825q4 25 -11.5 41t-39.5 16t-44.5 -16t-24.5 -41q-3 -24 13.5 -40t39.5 -16t43.5 16t23.5 40zM365 825q3 21 14 39t27 31.5t35.5 21t39.5 7.5q21 0 38.5 -7.5t30 -21
t18 -31t2.5 -38.5t-13.5 -39t-26 -31.5t-35.5 -21t-41 -7.5q-20 0 -37.5 7.5t-30 21t-18.5 31t-3 38.5z" />
    <glyph glyph-name="AE" unicode="&#xc6;" horiz-adv-x="963" 
d="M552 262l50 356h-19l-283 -356h252zM550 708h456l-13 -90h-295l-30 -211h277l-12 -90h-277l-32 -227h307l-13 -90h-403l24 172h-304l-125 -172h-118z" />
    <glyph glyph-name="Ccedilla" unicode="&#xc7;" horiz-adv-x="704" 
d="M662 555q-25 39 -68 60t-92 21q-60 0 -111.5 -22.5t-91.5 -61.5t-66 -91.5t-35 -112.5q-8 -56 3 -106t39.5 -88t74.5 -60t108 -22q61 0 110.5 25t87.5 70l73 -61q-9 -11 -32.5 -31.5t-59.5 -41t-84.5 -36t-109.5 -15.5q-84 0 -147 32t-103 84t-55.5 117.5t-6.5 132.5
q12 82 48.5 151.5t92.5 120t127.5 78.5t153.5 28q35 0 69 -6.5t64.5 -20t56 -34.5t43.5 -49zM253 -165q17 -8 36.5 -11.5t39.5 -3.5q9 0 20 2t20.5 6.5t17 12.5t9.5 21q3 19 -5.5 28t-22.5 11.5t-30.5 0t-31.5 -6.5l-18 18l73 87h49l-53 -61h29q17 0 33 -4t28 -13t18 -22.5
t3 -32.5q-4 -27 -18 -45t-33.5 -29t-42.5 -16t-44 -5q-27 0 -53 5.5t-49 17.5z" />
    <glyph glyph-name="Egrave" unicode="&#xc8;" horiz-adv-x="611" 
d="M191 708h457l-13 -90h-361l-30 -211h336l-12 -90h-336l-32 -227h379l-13 -90h-475zM477 748h-83l-128 144h128z" />
    <glyph glyph-name="Eacute" unicode="&#xc9;" horiz-adv-x="611" 
d="M191 708h457l-13 -90h-361l-30 -211h336l-12 -90h-336l-32 -227h379l-13 -90h-475zM470 892h128l-170 -144h-83z" />
    <glyph glyph-name="Ecircumflex" unicode="&#xca;" horiz-adv-x="611" 
d="M191 708h457l-13 -90h-361l-30 -211h336l-12 -90h-336l-32 -227h379l-13 -90h-475zM485 748l-60 96l-88 -96h-91l133 144h106l91 -144h-91z" />
    <glyph glyph-name="Edieresis" unicode="&#xcb;" horiz-adv-x="611" 
d="M191 708h457l-13 -90h-361l-30 -211h336l-12 -90h-336l-32 -227h379l-13 -90h-475zM534 898q23 0 40.5 -16t13.5 -41q-4 -27 -24 -45t-47 -18t-42 18t-11 45q4 25 25.5 41t44.5 16zM330 898q23 0 40.5 -16t13.5 -41q-4 -27 -24 -45t-47 -18t-42 18t-11 45q4 25 25.5 41
t44.5 16z" />
    <glyph glyph-name="Igrave" unicode="&#xcc;" horiz-adv-x="278" 
d="M191 708h96l-100 -708h-96zM310 748h-83l-128 144h128z" />
    <glyph glyph-name="Iacute" unicode="&#xcd;" horiz-adv-x="278" 
d="M191 708h96l-100 -708h-96zM303 892h128l-170 -144h-83z" />
    <glyph glyph-name="Icircumflex" unicode="&#xce;" horiz-adv-x="278" 
d="M191 708h96l-100 -708h-96zM318 748l-60 96l-88 -96h-91l133 144h106l91 -144h-91z" />
    <glyph glyph-name="Idieresis" unicode="&#xcf;" horiz-adv-x="278" 
d="M191 708h96l-100 -708h-96zM367 898q23 0 40.5 -16t13.5 -41q-4 -27 -24 -45t-47 -18t-42 18t-11 45q4 25 25.5 41t44.5 16zM163 898q23 0 40.5 -16t13.5 -41q-4 -27 -24 -45t-47 -18t-42 18t-11 45q4 25 25.5 41t44.5 16z" />
    <glyph glyph-name="Eth" unicode="&#xd0;" horiz-adv-x="741" 
d="M184 90h121q61 0 117.5 16.5t102.5 49.5t77 82.5t40 115.5q4 34 -0.5 79.5t-29 86.5t-74.5 69.5t-136 28.5h-144l-31 -216h234l-9 -66h-234zM122 336h-72l9 66h72l44 306h247q75 0 129 -17t91.5 -45.5t59.5 -65.5t33 -76t12 -78t-3 -72q-10 -68 -44 -131.5t-90 -113
t-132.5 -79.5t-171.5 -30h-231z" />
    <glyph glyph-name="Ntilde" unicode="&#xd1;" horiz-adv-x="796" 
d="M191 708h126l308 -582h2l82 582h96l-100 -708h-122l-312 582h-2l-82 -582h-96zM337 760q6 19 16.5 38t25.5 33.5t33.5 23.5t40.5 9q23 0 42 -7.5l38 -15.5q14 -6 25 -11.5t27 -5.5q20 0 33.5 13t21.5 31h48q-6 -19 -15 -37.5t-22.5 -33.5t-31 -24t-39.5 -9q-21 0 -41 6.5
t-38 14.5l-30 12.5t-33 6.5q-19 0 -32 -13.5t-21 -30.5h-48z" />
    <glyph glyph-name="Ograve" unicode="&#xd2;" horiz-adv-x="832" 
d="M426 72q61 0 113.5 22.5t92.5 60.5t66.5 89.5t34.5 109.5t-3.5 109.5t-41.5 89.5t-76 60.5t-107 22.5t-113 -22.5t-92.5 -60.5t-66.5 -89.5t-34 -109.5t3.5 -109.5t41 -89.5t75.5 -60.5t107 -22.5zM413 -18q-81 0 -144.5 28.5t-105.5 78.5t-59.5 118t-6.5 147t47.5 147
t92.5 118t128 78.5t153 28.5t144.5 -28.5t105.5 -78.5t60 -118t7 -147t-48 -147t-93 -118t-128 -78.5t-153 -28.5zM587 748h-83l-128 144h128z" />
    <glyph glyph-name="Oacute" unicode="&#xd3;" horiz-adv-x="832" 
d="M426 72q61 0 113.5 22.5t92.5 60.5t66.5 89.5t34.5 109.5t-3.5 109.5t-41.5 89.5t-76 60.5t-107 22.5t-113 -22.5t-92.5 -60.5t-66.5 -89.5t-34 -109.5t3.5 -109.5t41 -89.5t75.5 -60.5t107 -22.5zM413 -18q-81 0 -144.5 28.5t-105.5 78.5t-59.5 118t-6.5 147t47.5 147
t92.5 118t128 78.5t153 28.5t144.5 -28.5t105.5 -78.5t60 -118t7 -147t-48 -147t-93 -118t-128 -78.5t-153 -28.5zM580 892h128l-170 -144h-83z" />
    <glyph glyph-name="Ocircumflex" unicode="&#xd4;" horiz-adv-x="832" 
d="M426 72q61 0 113.5 22.5t92.5 60.5t66.5 89.5t34.5 109.5t-3.5 109.5t-41.5 89.5t-76 60.5t-107 22.5t-113 -22.5t-92.5 -60.5t-66.5 -89.5t-34 -109.5t3.5 -109.5t41 -89.5t75.5 -60.5t107 -22.5zM413 -18q-81 0 -144.5 28.5t-105.5 78.5t-59.5 118t-6.5 147t47.5 147
t92.5 118t128 78.5t153 28.5t144.5 -28.5t105.5 -78.5t60 -118t7 -147t-48 -147t-93 -118t-128 -78.5t-153 -28.5zM595 748l-60 96l-88 -96h-91l133 144h106l91 -144h-91z" />
    <glyph glyph-name="Otilde" unicode="&#xd5;" horiz-adv-x="832" 
d="M426 72q61 0 113.5 22.5t92.5 60.5t66.5 89.5t34.5 109.5t-3.5 109.5t-41.5 89.5t-76 60.5t-107 22.5t-113 -22.5t-92.5 -60.5t-66.5 -89.5t-34 -109.5t3.5 -109.5t41 -89.5t75.5 -60.5t107 -22.5zM413 -18q-81 0 -144.5 28.5t-105.5 78.5t-59.5 118t-6.5 147t47.5 147
t92.5 118t128 78.5t153 28.5t144.5 -28.5t105.5 -78.5t60 -118t7 -147t-48 -147t-93 -118t-128 -78.5t-153 -28.5zM355 760q6 19 16.5 38t25.5 33.5t33.5 23.5t40.5 9q23 0 42 -7.5l38 -15.5q14 -6 25 -11.5t27 -5.5q20 0 33.5 13t21.5 31h48q-6 -19 -15 -37.5t-22.5 -33.5
t-31 -24t-39.5 -9q-21 0 -41 6.5t-38 14.5l-30 12.5t-33 6.5q-19 0 -32 -13.5t-21 -30.5h-48z" />
    <glyph glyph-name="Odieresis" unicode="&#xd6;" horiz-adv-x="832" 
d="M426 72q61 0 113.5 22.5t92.5 60.5t66.5 89.5t34.5 109.5t-3.5 109.5t-41.5 89.5t-76 60.5t-107 22.5t-113 -22.5t-92.5 -60.5t-66.5 -89.5t-34 -109.5t3.5 -109.5t41 -89.5t75.5 -60.5t107 -22.5zM413 -18q-81 0 -144.5 28.5t-105.5 78.5t-59.5 118t-6.5 147t47.5 147
t92.5 118t128 78.5t153 28.5t144.5 -28.5t105.5 -78.5t60 -118t7 -147t-48 -147t-93 -118t-128 -78.5t-153 -28.5zM644 898q23 0 40.5 -16t13.5 -41q-4 -27 -24 -45t-47 -18t-42 18t-11 45q4 25 25.5 41t44.5 16zM440 898q23 0 40.5 -16t13.5 -41q-4 -27 -24 -45t-47 -18
t-42 18t-11 45q4 25 25.5 41t44.5 16z" />
    <glyph glyph-name="multiply" unicode="&#xd7;" horiz-adv-x="666" 
d="M321 303l-183 212l63 55l182 -212l243 212l46 -55l-241 -212l182 -212l-64 -55l-181 212l-241 -212l-46 56z" />
    <glyph glyph-name="Oslash" unicode="&#xd8;" horiz-adv-x="832" 
d="M56 8l98 93q-38 50 -53 114t-4 139q11 79 47.5 147t92.5 118t128 78.5t153 28.5q67 0 122 -20t97 -56l96 90l37 -38l-96 -90q39 -49 55.5 -115t5.5 -143q-11 -79 -48 -147t-93 -118t-128 -78.5t-153 -28.5q-69 0 -124.5 20.5t-97.5 58.5l-97 -91zM663 580
q-30 26 -69.5 41t-88.5 15q-61 0 -113 -22.5t-92.5 -60.5t-66.5 -89.5t-34 -109.5q-8 -52 0.5 -98t31.5 -83zM264 131q30 -28 70.5 -43.5t91.5 -15.5q61 0 113.5 22.5t92.5 60.5t66.5 89.5t34.5 109.5q8 54 -1.5 101t-34.5 85z" />
    <glyph glyph-name="Ugrave" unicode="&#xd9;" horiz-adv-x="704" 
d="M274 708l-61 -434q-5 -33 -1 -68.5t20.5 -65.5t48 -49t81.5 -19t87 19t62 49t39 65.5t19 68.5l61 434h96l-64 -449q-9 -62 -37 -112.5t-70 -87.5t-95 -57t-111 -20t-105.5 20t-79 57t-45.5 87.5t-5 112.5l64 449h96zM523 748h-83l-128 144h128z" />
    <glyph glyph-name="Uacute" unicode="&#xda;" horiz-adv-x="704" 
d="M274 708l-61 -434q-5 -33 -1 -68.5t20.5 -65.5t48 -49t81.5 -19t87 19t62 49t39 65.5t19 68.5l61 434h96l-64 -449q-9 -62 -37 -112.5t-70 -87.5t-95 -57t-111 -20t-105.5 20t-79 57t-45.5 87.5t-5 112.5l64 449h96zM516 892h128l-170 -144h-83z" />
    <glyph glyph-name="Ucircumflex" unicode="&#xdb;" horiz-adv-x="704" 
d="M274 708l-61 -434q-5 -33 -1 -68.5t20.5 -65.5t48 -49t81.5 -19t87 19t62 49t39 65.5t19 68.5l61 434h96l-64 -449q-9 -62 -37 -112.5t-70 -87.5t-95 -57t-111 -20t-105.5 20t-79 57t-45.5 87.5t-5 112.5l64 449h96zM531 748l-60 96l-88 -96h-91l133 144h106l91 -144h-91
z" />
    <glyph glyph-name="Udieresis" unicode="&#xdc;" horiz-adv-x="704" 
d="M274 708l-61 -434q-5 -33 -1 -68.5t20.5 -65.5t48 -49t81.5 -19t87 19t62 49t39 65.5t19 68.5l61 434h96l-64 -449q-9 -62 -37 -112.5t-70 -87.5t-95 -57t-111 -20t-105.5 20t-79 57t-45.5 87.5t-5 112.5l64 449h96zM580 898q23 0 40.5 -16t13.5 -41q-4 -27 -24 -45
t-47 -18t-42 18t-11 45q4 25 25.5 41t44.5 16zM376 898q23 0 40.5 -16t13.5 -41q-4 -27 -24 -45t-47 -18t-42 18t-11 45q4 25 25.5 41t44.5 16z" />
    <glyph glyph-name="Yacute" unicode="&#xdd;" horiz-adv-x="612" 
d="M300 302l-210 406h123l149 -311l243 311h117l-326 -406l-42 -302h-96zM470 892h128l-170 -144h-83z" />
    <glyph glyph-name="Thorn" unicode="&#xde;" horiz-adv-x="593" 
d="M222 251h126q28 0 56 4.5t51.5 16.5t39.5 34.5t21 58.5t-5 58.5t-29.5 34.5t-46.5 16.5t-55 4.5h-126zM191 708h96l-21 -145h153q68 0 109.5 -18.5t63 -47t26.5 -64t0 -68.5t-19.5 -68.5t-44.5 -64t-76.5 -47t-114.5 -18.5h-153l-23 -167h-96z" />
    <glyph glyph-name="germandbls" unicode="&#xdf;" horiz-adv-x="611" 
d="M140 509q7 53 22.5 100t45 82.5t76.5 56t117 20.5q42 0 77 -11.5t59.5 -34.5t35.5 -57t5 -78q-8 -62 -43 -101t-89 -54l-1 -2q29 -5 57.5 -19t49.5 -39.5t31 -63t3 -88.5q-8 -54 -32 -97t-60.5 -73t-83.5 -46t-99 -16q-36 0 -69 9l11 81q24 -6 52 -6q74 0 124.5 40.5
t61.5 115.5q6 40 -3.5 69t-30 48t-51 28.5t-67.5 9.5h-14l12 84h16q51 0 86 29t42 80q4 30 -3 51t-21.5 33.5t-33.5 18t-39 5.5q-38 0 -64.5 -12.5t-44.5 -34.5t-28.5 -52t-15.5 -65l-73 -520h-90z" />
    <glyph glyph-name="agrave" unicode="&#xe0;" horiz-adv-x="519" 
d="M356 228q-32 0 -66 -3.5t-63 -13.5t-49 -28t-24 -46q-5 -41 19.5 -59t71.5 -18q37 0 65 12.5t46.5 32.5t29.5 44.5t14 48.5l4 30h-48zM128 416q43 35 95.5 52.5t102.5 17.5q52 0 88 -13t57 -35t28 -50.5t3 -59.5l-34 -242q-4 -25 -5.5 -46t-2.5 -40h-80q1 18 3 36l4 36
h-2q-36 -46 -80 -65t-98 -19q-33 0 -61.5 9t-48.5 27t-29.5 44.5t-4.5 61.5q6 46 31 77t63.5 50.5t87 28t102.5 8.5h66l3 20q3 18 -1.5 36t-16.5 32.5t-32 23t-49 8.5q-26 0 -46.5 -5t-37 -12.5t-31 -17.5l-27.5 -19zM405 564h-83l-128 144h128z" />
    <glyph glyph-name="aacute" unicode="&#xe1;" horiz-adv-x="519" 
d="M356 228q-32 0 -66 -3.5t-63 -13.5t-49 -28t-24 -46q-5 -41 19.5 -59t71.5 -18q37 0 65 12.5t46.5 32.5t29.5 44.5t14 48.5l4 30h-48zM128 416q43 35 95.5 52.5t102.5 17.5q52 0 88 -13t57 -35t28 -50.5t3 -59.5l-34 -242q-4 -25 -5.5 -46t-2.5 -40h-80q1 18 3 36l4 36
h-2q-36 -46 -80 -65t-98 -19q-33 0 -61.5 9t-48.5 27t-29.5 44.5t-4.5 61.5q6 46 31 77t63.5 50.5t87 28t102.5 8.5h66l3 20q3 18 -1.5 36t-16.5 32.5t-32 23t-49 8.5q-26 0 -46.5 -5t-37 -12.5t-31 -17.5l-27.5 -19zM398 708h128l-170 -144h-83z" />
    <glyph glyph-name="acircumflex" unicode="&#xe2;" horiz-adv-x="519" 
d="M356 228q-32 0 -66 -3.5t-63 -13.5t-49 -28t-24 -46q-5 -41 19.5 -59t71.5 -18q37 0 65 12.5t46.5 32.5t29.5 44.5t14 48.5l4 30h-48zM128 416q43 35 95.5 52.5t102.5 17.5q52 0 88 -13t57 -35t28 -50.5t3 -59.5l-34 -242q-4 -25 -5.5 -46t-2.5 -40h-80q1 18 3 36l4 36
h-2q-36 -46 -80 -65t-98 -19q-33 0 -61.5 9t-48.5 27t-29.5 44.5t-4.5 61.5q6 46 31 77t63.5 50.5t87 28t102.5 8.5h66l3 20q3 18 -1.5 36t-16.5 32.5t-32 23t-49 8.5q-26 0 -46.5 -5t-37 -12.5t-31 -17.5l-27.5 -19zM413 564l-60 96l-88 -96h-91l133 144h106l91 -144h-91z
" />
    <glyph glyph-name="atilde" unicode="&#xe3;" horiz-adv-x="519" 
d="M356 228q-32 0 -66 -3.5t-63 -13.5t-49 -28t-24 -46q-5 -41 19.5 -59t71.5 -18q37 0 65 12.5t46.5 32.5t29.5 44.5t14 48.5l4 30h-48zM128 416q43 35 95.5 52.5t102.5 17.5q52 0 88 -13t57 -35t28 -50.5t3 -59.5l-34 -242q-4 -25 -5.5 -46t-2.5 -40h-80q1 18 3 36l4 36
h-2q-36 -46 -80 -65t-98 -19q-33 0 -61.5 9t-48.5 27t-29.5 44.5t-4.5 61.5q6 46 31 77t63.5 50.5t87 28t102.5 8.5h66l3 20q3 18 -1.5 36t-16.5 32.5t-32 23t-49 8.5q-26 0 -46.5 -5t-37 -12.5t-31 -17.5l-27.5 -19zM173 576q6 19 16.5 38t25.5 33.5t33.5 23.5t40.5 9
q23 0 42 -7.5l38 -15.5q14 -6 25 -11.5t27 -5.5q20 0 33.5 13t21.5 31h48q-6 -19 -15 -37.5t-22.5 -33.5t-31 -24t-39.5 -9q-21 0 -41 6.5t-38 14.5l-30 12.5t-33 6.5q-19 0 -32 -13.5t-21 -30.5h-48z" />
    <glyph glyph-name="adieresis" unicode="&#xe4;" horiz-adv-x="519" 
d="M356 228q-32 0 -66 -3.5t-63 -13.5t-49 -28t-24 -46q-5 -41 19.5 -59t71.5 -18q37 0 65 12.5t46.5 32.5t29.5 44.5t14 48.5l4 30h-48zM128 416q43 35 95.5 52.5t102.5 17.5q52 0 88 -13t57 -35t28 -50.5t3 -59.5l-34 -242q-4 -25 -5.5 -46t-2.5 -40h-80q1 18 3 36l4 36
h-2q-36 -46 -80 -65t-98 -19q-33 0 -61.5 9t-48.5 27t-29.5 44.5t-4.5 61.5q6 46 31 77t63.5 50.5t87 28t102.5 8.5h66l3 20q3 18 -1.5 36t-16.5 32.5t-32 23t-49 8.5q-26 0 -46.5 -5t-37 -12.5t-31 -17.5l-27.5 -19zM462 714q23 0 40.5 -16t13.5 -41q-4 -27 -24 -45
t-47 -18t-42 18t-11 45q4 25 25.5 41t44.5 16zM258 714q23 0 40.5 -16t13.5 -41q-4 -27 -24 -45t-47 -18t-42 18t-11 45q4 25 25.5 41t44.5 16z" />
    <glyph glyph-name="aring" unicode="&#xe5;" horiz-adv-x="519" 
d="M356 228q-32 0 -66 -3.5t-63 -13.5t-49 -28t-24 -46q-5 -41 19.5 -59t71.5 -18q37 0 65 12.5t46.5 32.5t29.5 44.5t14 48.5l4 30h-48zM128 416q43 35 95.5 52.5t102.5 17.5q52 0 88 -13t57 -35t28 -50.5t3 -59.5l-34 -242q-4 -25 -5.5 -46t-2.5 -40h-80q1 18 3 36l4 36
h-2q-36 -46 -80 -65t-98 -19q-33 0 -61.5 9t-48.5 27t-29.5 44.5t-4.5 61.5q6 46 31 77t63.5 50.5t87 28t102.5 8.5h66l3 20q3 18 -1.5 36t-16.5 32.5t-32 23t-49 8.5q-26 0 -46.5 -5t-37 -12.5t-31 -17.5l-27.5 -19zM411 651q4 25 -11.5 41t-39.5 16t-44.5 -16t-24.5 -41
q-3 -24 13.5 -40t39.5 -16t43.5 16t23.5 40zM249 651q3 21 14 39t27 31.5t35.5 21t39.5 7.5q21 0 38.5 -7.5t30 -21t18 -31t2.5 -38.5t-13.5 -39t-26 -31.5t-35.5 -21t-41 -7.5q-20 0 -37.5 7.5t-30 21t-18.5 31t-3 38.5z" />
    <glyph glyph-name="ae" unicode="&#xe6;" horiz-adv-x="852" 
d="M756 276q3 27 -0.5 51t-16 42t-35 28.5t-56.5 10.5q-32 0 -57.5 -10.5t-44.5 -28.5t-31 -42t-16 -51h257zM263 204q-52 0 -78 -17t-31 -52q-2 -17 3.5 -32t17.5 -26t29.5 -17t37.5 -6q28 0 55 9.5t49 27t37 42.5t20 57l2 14h-142zM842 204h-353q-4 -29 1.5 -55t21 -45.5
t40.5 -31.5t59 -12q43 0 77 21.5t57 53.5l65 -55q-48 -48 -97.5 -73t-114.5 -25q-57 0 -102 21.5t-69 75.5q-39 -45 -90.5 -71t-117.5 -26q-48 0 -80.5 13.5t-52 35t-26 49t-2.5 55.5q6 42 27.5 69.5t52 43t66.5 22t71 6.5h140l2 15q7 51 -18.5 87t-83.5 36q-42 0 -74 -14
t-67 -40l-48 57q42 34 94.5 51.5t103.5 17.5q49 0 93 -17t67 -59q13 13 30 26.5t38.5 24.5t48 18t59.5 7q68 0 107.5 -26t58.5 -63.5t22.5 -79t-0.5 -71.5z" />
    <glyph glyph-name="ccedilla" unicode="&#xe7;" horiz-adv-x="482" 
d="M456 348q-21 26 -47 39.5t-64 13.5q-37 0 -66.5 -13.5t-51.5 -37t-35.5 -54t-17.5 -63.5q-5 -33 1.5 -62.5t23.5 -51.5t43.5 -34.5t61.5 -12.5q38 0 67.5 13.5t55.5 39.5l55 -64q-42 -39 -90.5 -56t-100.5 -17q-55 0 -98 18t-71 50.5t-40 78t-4 100.5t32.5 101t61.5 79
t85 51.5t104 18.5q52 0 97 -18.5t75 -56.5zM152 -165q17 -8 36.5 -11.5t39.5 -3.5q9 0 20 2t20.5 6.5t17 12.5t9.5 21q3 19 -5.5 28t-22.5 11.5t-30.5 0t-31.5 -6.5l-18 18l73 87h49l-53 -61h29q17 0 33 -4t28 -13t18 -22.5t3 -32.5q-4 -27 -18 -45t-33.5 -29t-42.5 -16
t-44 -5q-27 0 -53 5.5t-49 17.5z" />
    <glyph glyph-name="egrave" unicode="&#xe8;" 
d="M459 276q3 30 -2 55t-19.5 43.5t-38.5 29t-58 10.5q-33 0 -62 -12.5t-51 -32.5t-36 -44.5t-17 -48.5h284zM165 204q-5 -31 5 -56.5t29.5 -43.5t47 -28t58.5 -10q42 0 75.5 19.5t64.5 51.5l61 -52q-88 -97 -224 -97q-56 0 -98.5 19t-69.5 52.5t-38 79t-3 98.5
q7 53 32 98.5t62.5 79t85 52.5t100.5 19q63 0 103.5 -22t63.5 -57.5t29 -80t0 -90.5l-4 -32h-380zM423 564h-83l-128 144h128z" />
    <glyph glyph-name="eacute" unicode="&#xe9;" 
d="M459 276q3 30 -2 55t-19.5 43.5t-38.5 29t-58 10.5q-33 0 -62 -12.5t-51 -32.5t-36 -44.5t-17 -48.5h284zM165 204q-5 -31 5 -56.5t29.5 -43.5t47 -28t58.5 -10q42 0 75.5 19.5t64.5 51.5l61 -52q-88 -97 -224 -97q-56 0 -98.5 19t-69.5 52.5t-38 79t-3 98.5
q7 53 32 98.5t62.5 79t85 52.5t100.5 19q63 0 103.5 -22t63.5 -57.5t29 -80t0 -90.5l-4 -32h-380zM416 708h128l-170 -144h-83z" />
    <glyph glyph-name="ecircumflex" unicode="&#xea;" 
d="M459 276q3 30 -2 55t-19.5 43.5t-38.5 29t-58 10.5q-33 0 -62 -12.5t-51 -32.5t-36 -44.5t-17 -48.5h284zM165 204q-5 -31 5 -56.5t29.5 -43.5t47 -28t58.5 -10q42 0 75.5 19.5t64.5 51.5l61 -52q-88 -97 -224 -97q-56 0 -98.5 19t-69.5 52.5t-38 79t-3 98.5
q7 53 32 98.5t62.5 79t85 52.5t100.5 19q63 0 103.5 -22t63.5 -57.5t29 -80t0 -90.5l-4 -32h-380zM431 564l-60 96l-88 -96h-91l133 144h106l91 -144h-91z" />
    <glyph glyph-name="edieresis" unicode="&#xeb;" 
d="M459 276q3 30 -2 55t-19.5 43.5t-38.5 29t-58 10.5q-33 0 -62 -12.5t-51 -32.5t-36 -44.5t-17 -48.5h284zM165 204q-5 -31 5 -56.5t29.5 -43.5t47 -28t58.5 -10q42 0 75.5 19.5t64.5 51.5l61 -52q-88 -97 -224 -97q-56 0 -98.5 19t-69.5 52.5t-38 79t-3 98.5
q7 53 32 98.5t62.5 79t85 52.5t100.5 19q63 0 103.5 -22t63.5 -57.5t29 -80t0 -90.5l-4 -32h-380zM480 714q23 0 40.5 -16t13.5 -41q-4 -27 -24 -45t-47 -18t-42 18t-11 45q4 25 25.5 41t44.5 16zM276 714q23 0 40.5 -16t13.5 -41q-4 -27 -24 -45t-47 -18t-42 18t-11 45
q4 25 25.5 41t44.5 16z" />
    <glyph glyph-name="igrave" unicode="&#xec;" horiz-adv-x="240" 
d="M142 474h90l-67 -474h-90zM265 564h-83l-128 144h128z" />
    <glyph glyph-name="iacute" unicode="&#xed;" horiz-adv-x="240" 
d="M142 474h90l-67 -474h-90zM258 708h128l-170 -144h-83z" />
    <glyph glyph-name="icircumflex" unicode="&#xee;" horiz-adv-x="240" 
d="M142 474h90l-67 -474h-90zM273 564l-60 96l-88 -96h-91l133 144h106l91 -144h-91z" />
    <glyph glyph-name="idieresis" unicode="&#xef;" horiz-adv-x="240" 
d="M142 474h90l-67 -474h-90zM322 714q23 0 40.5 -16t13.5 -41q-4 -27 -24 -45t-47 -18t-42 18t-11 45q4 25 25.5 41t44.5 16zM118 714q23 0 40.5 -16t13.5 -41q-4 -27 -24 -45t-47 -18t-42 18t-11 45q4 25 25.5 41t44.5 16z" />
    <glyph glyph-name="eth" unicode="&#xf0;" horiz-adv-x="594" 
d="M174 237q-5 -36 1.5 -66.5t24 -52t44.5 -34t63 -12.5t66.5 12.5t54 34t38.5 52t20 66.5t-1.5 66.5t-24 52t-44.5 34t-63 12.5t-66.5 -12.5t-54 -34t-38.5 -52t-20 -66.5zM575 712l-120 -55q33 -41 61 -85t46.5 -92t25.5 -100.5t-1 -110.5q-9 -63 -33.5 -115t-62 -89
t-87 -57t-109.5 -20q-53 0 -96 19.5t-72.5 53t-42.5 79t-6 97.5t33 97t65 79t87.5 53.5t101.5 19.5q33 0 65.5 -11t52.5 -39l3 2q-21 50 -52.5 94.5t-66.5 85.5l-114 -52l-41 46l113 53l-75 71l86 46l78 -78l115 52z" />
    <glyph glyph-name="ntilde" unicode="&#xf1;" 
d="M135 474h90l-11 -73h2q23 38 68 61.5t100 23.5q34 0 64 -10.5t50.5 -32.5t30 -56.5t2.5 -81.5l-43 -305h-90l39 280q5 33 -0.5 56.5t-18.5 38t-32 21t-40 6.5q-56 0 -99 -38t-55 -120l-34 -244h-90zM191 576q6 19 16.5 38t25.5 33.5t33.5 23.5t40.5 9q23 0 42 -7.5
l38 -15.5q14 -6 25 -11.5t27 -5.5q20 0 33.5 13t21.5 31h48q-6 -19 -15 -37.5t-22.5 -33.5t-31 -24t-39.5 -9q-21 0 -41 6.5t-38 14.5l-30 12.5t-33 6.5q-19 0 -32 -13.5t-21 -30.5h-48z" />
    <glyph glyph-name="ograve" unicode="&#xf2;" horiz-adv-x="594" 
d="M78 237q7 52 33 97t65 79t87.5 53.5t101.5 19.5t96.5 -19.5t72.5 -53.5t42 -79t6 -97t-33 -97.5t-65 -79t-87.5 -53t-101.5 -19.5t-96 19.5t-72.5 53t-42.5 79t-6 97.5zM174 237q-5 -36 1.5 -66.5t24 -52t44.5 -34t63 -12.5t66.5 12.5t54 34t38.5 52t20 66.5t-1.5 66.5
t-24 52t-44.5 34t-63 12.5t-66.5 -12.5t-54 -34t-38.5 -52t-20 -66.5zM442 564h-83l-128 144h128z" />
    <glyph glyph-name="oacute" unicode="&#xf3;" horiz-adv-x="594" 
d="M78 237q7 52 33 97t65 79t87.5 53.5t101.5 19.5t96.5 -19.5t72.5 -53.5t42 -79t6 -97t-33 -97.5t-65 -79t-87.5 -53t-101.5 -19.5t-96 19.5t-72.5 53t-42.5 79t-6 97.5zM174 237q-5 -36 1.5 -66.5t24 -52t44.5 -34t63 -12.5t66.5 12.5t54 34t38.5 52t20 66.5t-1.5 66.5
t-24 52t-44.5 34t-63 12.5t-66.5 -12.5t-54 -34t-38.5 -52t-20 -66.5zM435 708h128l-170 -144h-83z" />
    <glyph glyph-name="ocircumflex" unicode="&#xf4;" horiz-adv-x="594" 
d="M78 237q7 52 33 97t65 79t87.5 53.5t101.5 19.5t96.5 -19.5t72.5 -53.5t42 -79t6 -97t-33 -97.5t-65 -79t-87.5 -53t-101.5 -19.5t-96 19.5t-72.5 53t-42.5 79t-6 97.5zM174 237q-5 -36 1.5 -66.5t24 -52t44.5 -34t63 -12.5t66.5 12.5t54 34t38.5 52t20 66.5t-1.5 66.5
t-24 52t-44.5 34t-63 12.5t-66.5 -12.5t-54 -34t-38.5 -52t-20 -66.5zM450 564l-60 96l-88 -96h-91l133 144h106l91 -144h-91z" />
    <glyph glyph-name="otilde" unicode="&#xf5;" horiz-adv-x="594" 
d="M78 237q7 52 33 97t65 79t87.5 53.5t101.5 19.5t96.5 -19.5t72.5 -53.5t42 -79t6 -97t-33 -97.5t-65 -79t-87.5 -53t-101.5 -19.5t-96 19.5t-72.5 53t-42.5 79t-6 97.5zM174 237q-5 -36 1.5 -66.5t24 -52t44.5 -34t63 -12.5t66.5 12.5t54 34t38.5 52t20 66.5t-1.5 66.5
t-24 52t-44.5 34t-63 12.5t-66.5 -12.5t-54 -34t-38.5 -52t-20 -66.5zM210 576q6 19 16.5 38t25.5 33.5t33.5 23.5t40.5 9q23 0 42 -7.5l38 -15.5q14 -6 25 -11.5t27 -5.5q20 0 33.5 13t21.5 31h48q-6 -19 -15 -37.5t-22.5 -33.5t-31 -24t-39.5 -9q-21 0 -41 6.5t-38 14.5
l-30 12.5t-33 6.5q-19 0 -32 -13.5t-21 -30.5h-48z" />
    <glyph glyph-name="odieresis" unicode="&#xf6;" horiz-adv-x="594" 
d="M78 237q7 52 33 97t65 79t87.5 53.5t101.5 19.5t96.5 -19.5t72.5 -53.5t42 -79t6 -97t-33 -97.5t-65 -79t-87.5 -53t-101.5 -19.5t-96 19.5t-72.5 53t-42.5 79t-6 97.5zM174 237q-5 -36 1.5 -66.5t24 -52t44.5 -34t63 -12.5t66.5 12.5t54 34t38.5 52t20 66.5t-1.5 66.5
t-24 52t-44.5 34t-63 12.5t-66.5 -12.5t-54 -34t-38.5 -52t-20 -66.5zM499 714q23 0 40.5 -16t13.5 -41q-4 -27 -24 -45t-47 -18t-42 18t-11 45q4 25 25.5 41t44.5 16zM295 714q23 0 40.5 -16t13.5 -41q-4 -27 -24 -45t-47 -18t-42 18t-11 45q4 25 25.5 41t44.5 16z" />
    <glyph glyph-name="divide" unicode="&#xf7;" horiz-adv-x="666" 
d="M286 134q4 27 26 46.5t49 19.5t44 -19.5t13 -46.5t-26 -46.5t-49 -19.5t-44 19.5t-13 46.5zM333 470q4 27 26 46.5t49 19.5t44 -19.5t13 -46.5t-26 -46.5t-49 -19.5t-44 19.5t-13 46.5zM648 341l-11 -78h-534l11 78h534z" />
    <glyph glyph-name="oslash" unicode="&#xf8;" horiz-adv-x="594" 
d="M222 99q31 -27 85 -27q36 0 66.5 12.5t54 34t38.5 52t20 66.5q8 51 -9 89zM42 4l76 68q-25 32 -36 74.5t-4 90.5q7 52 33 97t65 79t87.5 53.5t101.5 19.5q48 0 87 -15.5t67 -42.5l86 75l31 -36l-86 -76q21 -32 29.5 -71t2.5 -83q-7 -52 -33 -97.5t-65 -79t-87.5 -53
t-101.5 -19.5q-42 0 -78 13t-65 36l-78 -69zM451 367q-17 17 -41.5 26t-56.5 9q-36 0 -66.5 -12.5t-54 -34t-38.5 -52t-20 -66.5q-8 -62 16 -102z" />
    <glyph glyph-name="ugrave" unicode="&#xf9;" 
d="M488 0h-90l10 73h-2q-23 -38 -68 -61.5t-100 -23.5q-35 0 -64.5 10.5t-50 32.5t-29.5 56.5t-2 81.5l43 305h90l-40 -280q-5 -33 1 -56.5t18.5 -38t31.5 -21t40 -6.5q28 0 53.5 9t46 28.5t34.5 49.5t20 71l35 244h90zM423 564h-83l-128 144h128z" />
    <glyph glyph-name="uacute" unicode="&#xfa;" 
d="M488 0h-90l10 73h-2q-23 -38 -68 -61.5t-100 -23.5q-35 0 -64.5 10.5t-50 32.5t-29.5 56.5t-2 81.5l43 305h90l-40 -280q-5 -33 1 -56.5t18.5 -38t31.5 -21t40 -6.5q28 0 53.5 9t46 28.5t34.5 49.5t20 71l35 244h90zM416 708h128l-170 -144h-83z" />
    <glyph glyph-name="ucircumflex" unicode="&#xfb;" 
d="M488 0h-90l10 73h-2q-23 -38 -68 -61.5t-100 -23.5q-35 0 -64.5 10.5t-50 32.5t-29.5 56.5t-2 81.5l43 305h90l-40 -280q-5 -33 1 -56.5t18.5 -38t31.5 -21t40 -6.5q28 0 53.5 9t46 28.5t34.5 49.5t20 71l35 244h90zM431 564l-60 96l-88 -96h-91l133 144h106l91 -144h-91
z" />
    <glyph glyph-name="udieresis" unicode="&#xfc;" 
d="M488 0h-90l10 73h-2q-23 -38 -68 -61.5t-100 -23.5q-35 0 -64.5 10.5t-50 32.5t-29.5 56.5t-2 81.5l43 305h90l-40 -280q-5 -33 1 -56.5t18.5 -38t31.5 -21t40 -6.5q28 0 53.5 9t46 28.5t34.5 49.5t20 71l35 244h90zM480 714q23 0 40.5 -16t13.5 -41q-4 -27 -24 -45
t-47 -18t-42 18t-11 45q4 25 25.5 41t44.5 16zM276 714q23 0 40.5 -16t13.5 -41q-4 -27 -24 -45t-47 -18t-42 18t-11 45q4 25 25.5 41t44.5 16z" />
    <glyph glyph-name="yacute" unicode="&#xfd;" horiz-adv-x="500" 
d="M78 474h104l89 -370h2l186 370h97l-306 -576q-17 -31 -33.5 -56.5t-37 -43.5t-47.5 -28t-64 -10q-20 0 -40 2.5t-38 10.5l23 82q25 -11 52 -11q21 0 36.5 5.5t27 16t21 24.5t18.5 32l40 75zM388 708h128l-170 -144h-83z" />
    <glyph glyph-name="thorn" unicode="&#xfe;" horiz-adv-x="611" 
d="M324 72q36 0 66.5 12.5t54 34t38.5 52t20 66.5t-1.5 66.5t-24 52t-44.5 34t-63 12.5t-66.5 -12.5t-54 -34t-38.5 -52t-20 -66.5t1.5 -66.5t24 -52t44.5 -34t63 -12.5zM174 756h90l-49 -350h2q29 37 77 58.5t99 21.5q55 0 96.5 -19t68.5 -52.5t37.5 -79t3.5 -98.5
t-30.5 -98t-59.5 -79t-83.5 -53t-102.5 -19q-48 0 -90.5 21t-62.5 59h-2l-42 -296h-90z" />
    <glyph glyph-name="ydieresis" unicode="&#xff;" horiz-adv-x="500" 
d="M78 474h104l89 -370h2l186 370h97l-306 -576q-17 -31 -33.5 -56.5t-37 -43.5t-47.5 -28t-64 -10q-20 0 -40 2.5t-38 10.5l23 82q25 -11 52 -11q21 0 36.5 5.5t27 16t21 24.5t18.5 32l40 75zM452 714q23 0 40.5 -16t13.5 -41q-4 -27 -24 -45t-47 -18t-42 18t-11 45
q4 25 25.5 41t44.5 16zM248 714q23 0 40.5 -16t13.5 -41q-4 -27 -24 -45t-47 -18t-42 18t-11 45q4 25 25.5 41t44.5 16z" />
    <glyph glyph-name="A" unicode="A" horiz-adv-x="704" 
d="M521 259l-86 325h-2l-180 -325h268zM413 708h87l203 -708h-112l-46 175h-337l-95 -175h-112z" />
    <glyph glyph-name="Lslash" unicode="&#x141;" horiz-adv-x="519" 
d="M120 209l-80 -63l12 89l81 62l58 411h96l-47 -328l243 188l-13 -89l-242 -187l-28 -202h325l-13 -90h-421z" />
    <glyph glyph-name="breve" unicode="&#x2d8;" horiz-adv-x="240" 
d="M117 702q1 -38 28.5 -55t64.5 -17t68.5 17t44.5 55h53q-14 -69 -62.5 -103.5t-114.5 -34.5t-104 34.5t-33 103.5h55z" />
    <glyph glyph-name="caron" unicode="&#x2c7;" horiz-adv-x="240" 
d="M55 708h87l64 -96l88 96h91l-133 -144h-106z" />
    <glyph glyph-name="dotaccent" unicode="&#x2d9;" horiz-adv-x="240" 
d="M203 594q-27 0 -42 18t-11 45q4 25 25.5 41t44.5 16t40.5 -16t13.5 -41q-4 -27 -24 -45t-47 -18z" />
    <glyph glyph-name="dotlessi" unicode="&#x131;" horiz-adv-x="240" 
d="M142 474h90l-67 -474h-90z" />
    <glyph glyph-name="fi" unicode="&#xfb01;" 
d="M159 396h-102l11 78h102l15 106q13 95 56 141.5t132 46.5q15 0 31.5 -1t34.5 -6l-21 -80q-12 5 -24 7t-26 2q-25 0 -41 -7.5t-26.5 -21.5t-16 -33.5t-8.5 -44.5l-15 -109h107l-11 -78h-108l-56 -396h-90zM460 643q4 27 26.5 46.5t49.5 19.5t43.5 -19.5t12.5 -46.5
t-26 -46.5t-49 -19.5t-44 19.5t-13 46.5zM457 474h90l-67 -474h-90z" />
    <glyph glyph-name="fl" unicode="&#xfb02;" 
d="M159 396h-102l11 78h102l15 106q13 95 56 141.5t132 46.5q15 0 31.5 -1t34.5 -6l-21 -80q-12 5 -24 7t-26 2q-25 0 -41 -7.5t-26.5 -21.5t-16 -33.5t-8.5 -44.5l-15 -109h107l-11 -78h-108l-56 -396h-90zM497 756h90l-106 -756h-90z" />
    <glyph glyph-name="fraction" unicode="&#x2215;" horiz-adv-x="167" 
d="M-110 -32l-56 32l543 740l56 -32z" />
    <glyph glyph-name="hungarumlaut" unicode="&#x2dd;" horiz-adv-x="240" 
d="M323 708h127l-170 -144h-82zM154 708h127l-170 -144h-82z" />
    <glyph glyph-name="lslash" unicode="&#x142;" horiz-adv-x="240" 
d="M117 298l-89 -78l13 90l89 78l51 368h90l-39 -278l89 77l-13 -90l-88 -77l-55 -388h-90z" />
    <glyph glyph-name="minus" unicode="&#x2212;" horiz-adv-x="666" 
d="M648 342l-11 -78h-534l11 78h534z" />
    <glyph glyph-name="ogonek" unicode="&#x2db;" horiz-adv-x="240" 
d="M189 -186q-23 -18 -48 -26.5t-48 -8.5q-20 0 -36.5 5.5t-28.5 16.5t-18 26.5t-4 36.5q3 21 14.5 41.5t27.5 39t34.5 34.5t36.5 28h54l-27.5 -25.5t-29 -31.5t-24 -34.5t-12.5 -33.5q-1 -24 12 -33.5t31 -9.5q13 0 26 5.5t24 13.5z" />
    <glyph glyph-name="ring" unicode="&#x2da;" horiz-adv-x="240" 
d="M271 651q4 25 -11.5 41t-39.5 16t-44.5 -16t-24.5 -41q-3 -24 13.5 -40t39.5 -16t43.5 16t23.5 40zM109 651q3 21 14 39t27 31.5t35.5 21t39.5 7.5q21 0 38.5 -7.5t30 -21t18 -31t2.5 -38.5t-13.5 -39t-26 -31.5t-35.5 -21t-41 -7.5q-20 0 -37.5 7.5t-30 21t-18.5 31
t-3 38.5z" />
    <glyph glyph-name="nonbreakingspace" horiz-adv-x="278" 
 />
    </font>
</defs>
</svg>
